<svg width="606" height="485" viewBox="0 0 606 485" fill="none" xmlns="http://www.w3.org/2000/svg">
<g clip-path="url(#clip0_2206_1301)">
<path d="M341.5 37C376.613 37 411.227 45.3102 442.513 61.2511C473.799 77.1919 500.867 100.311 521.506 128.718C542.145 157.125 555.768 190.013 561.261 224.694C566.753 259.374 563.96 294.862 553.11 328.256L341.5 259.5V37Z" fill="#2DA8DF"/>
<path d="M553.11 328.256C538.59 372.944 510.296 411.888 472.282 439.506C434.268 467.125 388.487 482 341.5 482V259.5L553.11 328.256Z" fill="#1A7464"/>
<path d="M341.5 482C294.512 482 248.731 467.125 210.718 439.506C172.704 411.888 144.409 372.944 129.89 328.256L341.5 259.5V482Z" fill="#1E4294"/>
<path d="M129.89 328.256C119.039 294.862 116.247 259.374 121.739 224.694C127.232 190.013 140.855 157.125 161.494 128.718L341.5 259.5L129.89 328.256Z" fill="#0063B2"/>
<path d="M161.494 128.718C189.113 90.7042 228.057 62.4098 272.744 47.8899L341.5 259.5L161.494 128.718Z" fill="#079820"/>
<path d="M272.743 47.8899C294.949 40.6749 318.151 37 341.5 37V259.5L272.743 47.8899Z" fill="#04C1C6"/>
<circle cx="341.5" cy="259.5" r="111.25" fill="white"/>
</g>
<rect x="445" y="420" width="98" height="48" rx="8" fill="#E1E6F2"/>
<path d="M453.625 444C453.69 442.796 453.938 441.747 454.367 440.855C454.803 439.964 455.65 439.153 456.906 438.424L458.781 437.34C459.621 436.852 460.21 436.435 460.549 436.09C461.083 435.549 461.35 434.931 461.35 434.234C461.35 433.421 461.105 432.776 460.617 432.301C460.129 431.819 459.478 431.578 458.664 431.578C457.46 431.578 456.626 432.034 456.164 432.945C455.917 433.434 455.78 434.111 455.754 434.977H453.967C453.986 433.759 454.211 432.766 454.641 431.998C455.402 430.644 456.747 429.967 458.674 429.967C460.275 429.967 461.444 430.4 462.18 431.266C462.922 432.132 463.293 433.095 463.293 434.156C463.293 435.276 462.899 436.233 462.111 437.027C461.656 437.49 460.839 438.049 459.66 438.707L458.322 439.449C457.684 439.801 457.183 440.136 456.818 440.455C456.167 441.021 455.757 441.65 455.588 442.34H463.225V444H453.625ZM469.543 430.016C471.353 430.016 472.661 430.761 473.469 432.252C474.094 433.404 474.406 434.983 474.406 436.988C474.406 438.889 474.123 440.462 473.557 441.705C472.736 443.489 471.395 444.381 469.533 444.381C467.854 444.381 466.604 443.652 465.783 442.193C465.1 440.976 464.758 439.342 464.758 437.291C464.758 435.702 464.963 434.339 465.373 433.199C466.141 431.077 467.531 430.016 469.543 430.016ZM469.523 442.779C470.435 442.779 471.161 442.376 471.701 441.568C472.242 440.761 472.512 439.257 472.512 437.057C472.512 435.468 472.316 434.163 471.926 433.141C471.535 432.112 470.777 431.598 469.65 431.598C468.615 431.598 467.857 432.086 467.375 433.062C466.9 434.033 466.662 435.465 466.662 437.359C466.662 438.785 466.815 439.931 467.121 440.797C467.59 442.118 468.391 442.779 469.523 442.779ZM488.898 437.203C489.836 437.203 490.637 437.535 491.301 438.199C491.965 438.863 492.297 439.664 492.297 440.602C492.297 441.539 491.965 442.34 491.301 443.004C490.637 443.668 489.836 444 488.898 444C487.954 444 487.15 443.668 486.486 443.004C485.822 442.34 485.49 441.539 485.49 440.602C485.49 439.664 485.822 438.863 486.486 438.199C487.15 437.535 487.954 437.203 488.898 437.203ZM487.482 430.074H488.566L480.744 444.371H479.66L487.482 430.074ZM479.309 435.855C479.868 435.855 480.344 435.66 480.734 435.27C481.132 434.872 481.33 434.397 481.33 433.844C481.33 433.29 481.132 432.818 480.734 432.428C480.344 432.031 479.868 431.832 479.309 431.832C478.755 431.832 478.28 432.027 477.883 432.418C477.492 432.809 477.297 433.284 477.297 433.844C477.297 434.397 477.492 434.872 477.883 435.27C478.28 435.66 478.755 435.855 479.309 435.855ZM479.309 430.436C480.253 430.436 481.057 430.771 481.721 431.441C482.385 432.105 482.717 432.906 482.717 433.844C482.717 434.781 482.385 435.582 481.721 436.246C481.057 436.91 480.253 437.242 479.309 437.242C478.371 437.242 477.57 436.91 476.906 436.246C476.242 435.582 475.91 434.781 475.91 433.844C475.91 432.906 476.242 432.105 476.906 431.441C477.57 430.771 478.371 430.436 479.309 430.436ZM488.898 442.613C489.452 442.613 489.924 442.418 490.314 442.027C490.712 441.63 490.91 441.155 490.91 440.602C490.91 440.048 490.712 439.576 490.314 439.186C489.924 438.788 489.452 438.59 488.898 438.59C488.339 438.59 487.86 438.788 487.463 439.186C487.072 439.576 486.877 440.048 486.877 440.602C486.877 441.155 487.072 441.63 487.463 442.027C487.86 442.418 488.339 442.613 488.898 442.613Z" fill="black"/>
<path d="M455.18 448.393V453.713C455.18 454.338 455.297 454.857 455.531 455.271C455.879 455.896 456.465 456.209 457.289 456.209C458.277 456.209 458.949 455.871 459.305 455.195C459.496 454.828 459.592 454.334 459.592 453.713V448.393H460.775V453.227C460.775 454.285 460.633 455.1 460.348 455.67C459.824 456.709 458.836 457.229 457.383 457.229C455.93 457.229 454.943 456.709 454.424 455.67C454.139 455.1 453.996 454.285 453.996 453.227V448.393H455.18ZM462.656 448.973H463.723V450.725H464.725V451.586H463.723V455.682C463.723 455.9 463.797 456.047 463.945 456.121C464.027 456.164 464.164 456.186 464.355 456.186C464.406 456.186 464.461 456.186 464.52 456.186C464.578 456.182 464.646 456.176 464.725 456.168V457C464.604 457.035 464.477 457.061 464.344 457.076C464.215 457.092 464.074 457.1 463.922 457.1C463.43 457.1 463.096 456.975 462.92 456.725C462.744 456.471 462.656 456.143 462.656 455.74V451.586H461.807V450.725H462.656V448.973ZM465.785 450.754H466.857V457H465.785V450.754ZM465.785 448.393H466.857V449.588H465.785V448.393ZM468.486 448.393H469.541V457H468.486V448.393ZM471.129 450.754H472.201V457H471.129V450.754ZM471.129 448.393H472.201V449.588H471.129V448.393ZM474.012 448.973H475.078V450.725H476.08V451.586H475.078V455.682C475.078 455.9 475.152 456.047 475.301 456.121C475.383 456.164 475.52 456.186 475.711 456.186C475.762 456.186 475.816 456.186 475.875 456.186C475.934 456.182 476.002 456.176 476.08 456.168V457C475.959 457.035 475.832 457.061 475.699 457.076C475.57 457.092 475.43 457.1 475.277 457.1C474.785 457.1 474.451 456.975 474.275 456.725C474.1 456.471 474.012 456.143 474.012 455.74V451.586H473.162V450.725H474.012V448.973ZM481.061 450.725H482.227C482.078 451.127 481.748 452.045 481.236 453.479C480.854 454.557 480.533 455.436 480.275 456.115C479.666 457.717 479.236 458.693 478.986 459.045C478.736 459.396 478.307 459.572 477.697 459.572C477.549 459.572 477.434 459.566 477.352 459.555C477.273 459.543 477.176 459.521 477.059 459.49V458.529C477.242 458.58 477.375 458.611 477.457 458.623C477.539 458.635 477.611 458.641 477.674 458.641C477.869 458.641 478.012 458.607 478.102 458.541C478.195 458.479 478.273 458.4 478.336 458.307C478.355 458.275 478.426 458.115 478.547 457.826C478.668 457.537 478.756 457.322 478.811 457.182L476.49 450.725H477.686L479.367 455.834L481.061 450.725ZM492.674 448.393V449.418H489.773V457H488.59V449.418H485.689V448.393H492.674ZM494.76 456.32C495.459 456.32 495.938 456.057 496.195 455.529C496.457 454.998 496.588 454.408 496.588 453.76C496.588 453.174 496.494 452.697 496.307 452.33C496.01 451.752 495.498 451.463 494.771 451.463C494.127 451.463 493.658 451.709 493.365 452.201C493.072 452.693 492.926 453.287 492.926 453.982C492.926 454.65 493.072 455.207 493.365 455.652C493.658 456.098 494.123 456.32 494.76 456.32ZM494.801 450.543C495.609 450.543 496.293 450.812 496.852 451.352C497.41 451.891 497.689 452.684 497.689 453.73C497.689 454.742 497.443 455.578 496.951 456.238C496.459 456.898 495.695 457.229 494.66 457.229C493.797 457.229 493.111 456.938 492.604 456.355C492.096 455.77 491.842 454.984 491.842 454C491.842 452.945 492.109 452.105 492.645 451.48C493.18 450.855 493.898 450.543 494.801 450.543ZM498.926 448.393H499.939V453.391L502.646 450.725H503.994L501.592 453.074L504.129 457H502.781L500.824 453.836L499.939 454.645V457H498.926V448.393ZM507.562 450.584C508.008 450.584 508.439 450.689 508.857 450.9C509.275 451.107 509.594 451.377 509.812 451.709C510.023 452.025 510.164 452.395 510.234 452.816C510.297 453.105 510.328 453.566 510.328 454.199H505.729C505.748 454.836 505.898 455.348 506.18 455.734C506.461 456.117 506.896 456.309 507.486 456.309C508.037 456.309 508.477 456.127 508.805 455.764C508.992 455.553 509.125 455.309 509.203 455.031H510.24C510.213 455.262 510.121 455.52 509.965 455.805C509.812 456.086 509.641 456.316 509.449 456.496C509.129 456.809 508.732 457.02 508.26 457.129C508.006 457.191 507.719 457.223 507.398 457.223C506.617 457.223 505.955 456.939 505.412 456.373C504.869 455.803 504.598 455.006 504.598 453.982C504.598 452.975 504.871 452.156 505.418 451.527C505.965 450.898 506.68 450.584 507.562 450.584ZM509.244 453.361C509.201 452.904 509.102 452.539 508.945 452.266C508.656 451.758 508.174 451.504 507.498 451.504C507.014 451.504 506.607 451.68 506.279 452.031C505.951 452.379 505.777 452.822 505.758 453.361H509.244ZM511.629 450.725H512.631V451.615C512.928 451.248 513.242 450.984 513.574 450.824C513.906 450.664 514.275 450.584 514.682 450.584C515.572 450.584 516.174 450.895 516.486 451.516C516.658 451.855 516.744 452.342 516.744 452.975V457H515.672V453.045C515.672 452.662 515.615 452.354 515.502 452.119C515.314 451.729 514.975 451.533 514.482 451.533C514.232 451.533 514.027 451.559 513.867 451.609C513.578 451.695 513.324 451.867 513.105 452.125C512.93 452.332 512.814 452.547 512.76 452.77C512.709 452.988 512.684 453.303 512.684 453.713V457H511.629V450.725ZM522.551 454.223C522.578 454.711 522.693 455.107 522.896 455.412C523.283 455.982 523.965 456.268 524.941 456.268C525.379 456.268 525.777 456.205 526.137 456.08C526.832 455.838 527.18 455.404 527.18 454.779C527.18 454.311 527.033 453.977 526.74 453.777C526.443 453.582 525.979 453.412 525.346 453.268L524.18 453.004C523.418 452.832 522.879 452.643 522.562 452.436C522.016 452.076 521.742 451.539 521.742 450.824C521.742 450.051 522.01 449.416 522.545 448.92C523.08 448.424 523.838 448.176 524.818 448.176C525.721 448.176 526.486 448.395 527.115 448.832C527.748 449.266 528.064 449.961 528.064 450.918H526.969C526.91 450.457 526.785 450.104 526.594 449.857C526.238 449.408 525.635 449.184 524.783 449.184C524.096 449.184 523.602 449.328 523.301 449.617C523 449.906 522.85 450.242 522.85 450.625C522.85 451.047 523.025 451.355 523.377 451.551C523.607 451.676 524.129 451.832 524.941 452.02L526.148 452.295C526.73 452.428 527.18 452.609 527.496 452.84C528.043 453.242 528.316 453.826 528.316 454.592C528.316 455.545 527.969 456.227 527.273 456.637C526.582 457.047 525.777 457.252 524.859 457.252C523.789 457.252 522.951 456.979 522.346 456.432C521.74 455.889 521.443 455.152 521.455 454.223H522.551ZM530.461 455.33C530.461 455.635 530.572 455.875 530.795 456.051C531.018 456.227 531.281 456.314 531.586 456.314C531.957 456.314 532.316 456.229 532.664 456.057C533.25 455.771 533.543 455.305 533.543 454.656V453.807C533.414 453.889 533.248 453.957 533.045 454.012C532.842 454.066 532.643 454.105 532.447 454.129L531.809 454.211C531.426 454.262 531.139 454.342 530.947 454.451C530.623 454.635 530.461 454.928 530.461 455.33ZM533.016 453.197C533.258 453.166 533.42 453.064 533.502 452.893C533.549 452.799 533.572 452.664 533.572 452.488C533.572 452.129 533.443 451.869 533.186 451.709C532.932 451.545 532.566 451.463 532.09 451.463C531.539 451.463 531.148 451.611 530.918 451.908C530.789 452.072 530.705 452.316 530.666 452.641H529.682C529.701 451.867 529.951 451.33 530.432 451.029C530.916 450.725 531.477 450.572 532.113 450.572C532.852 450.572 533.451 450.713 533.912 450.994C534.369 451.275 534.598 451.713 534.598 452.307V455.922C534.598 456.031 534.619 456.119 534.662 456.186C534.709 456.252 534.805 456.285 534.949 456.285C534.996 456.285 535.049 456.283 535.107 456.279C535.166 456.271 535.229 456.262 535.295 456.25V457.029C535.131 457.076 535.006 457.105 534.92 457.117C534.834 457.129 534.717 457.135 534.568 457.135C534.205 457.135 533.941 457.006 533.777 456.748C533.691 456.611 533.631 456.418 533.596 456.168C533.381 456.449 533.072 456.693 532.67 456.9C532.268 457.107 531.824 457.211 531.34 457.211C530.758 457.211 530.281 457.035 529.91 456.684C529.543 456.328 529.359 455.885 529.359 455.354C529.359 454.771 529.541 454.32 529.904 454C530.268 453.68 530.744 453.482 531.334 453.408L533.016 453.197ZM536.361 448.393H537.416V457H536.361V448.393ZM541.617 450.584C542.062 450.584 542.494 450.689 542.912 450.9C543.33 451.107 543.648 451.377 543.867 451.709C544.078 452.025 544.219 452.395 544.289 452.816C544.352 453.105 544.383 453.566 544.383 454.199H539.783C539.803 454.836 539.953 455.348 540.234 455.734C540.516 456.117 540.951 456.309 541.541 456.309C542.092 456.309 542.531 456.127 542.859 455.764C543.047 455.553 543.18 455.309 543.258 455.031H544.295C544.268 455.262 544.176 455.52 544.02 455.805C543.867 456.086 543.695 456.316 543.504 456.496C543.184 456.809 542.787 457.02 542.314 457.129C542.061 457.191 541.773 457.223 541.453 457.223C540.672 457.223 540.01 456.939 539.467 456.373C538.924 455.803 538.652 455.006 538.652 453.982C538.652 452.975 538.926 452.156 539.473 451.527C540.02 450.898 540.734 450.584 541.617 450.584ZM543.299 453.361C543.256 452.904 543.156 452.539 543 452.266C542.711 451.758 542.229 451.504 541.553 451.504C541.068 451.504 540.662 451.68 540.334 452.031C540.006 452.379 539.832 452.822 539.812 453.361H543.299Z" fill="black"/>
<rect x="180.5" y="437" width="118" height="48" rx="8" fill="#E1E6F2"/>
<path d="M193.695 461.381C192.042 461.381 190.84 460.928 190.092 460.023C189.35 459.112 188.979 458.005 188.979 456.703H190.814C190.893 457.608 191.062 458.266 191.322 458.676C191.778 459.411 192.602 459.779 193.793 459.779C194.717 459.779 195.46 459.532 196.02 459.037C196.579 458.542 196.859 457.904 196.859 457.123C196.859 456.16 196.563 455.486 195.971 455.102C195.385 454.717 194.568 454.525 193.52 454.525C193.402 454.525 193.282 454.529 193.158 454.535C193.041 454.535 192.921 454.538 192.797 454.545V452.992C192.979 453.012 193.132 453.025 193.256 453.031C193.38 453.038 193.513 453.041 193.656 453.041C194.314 453.041 194.854 452.937 195.277 452.729C196.02 452.364 196.391 451.713 196.391 450.775C196.391 450.079 196.143 449.542 195.648 449.164C195.154 448.786 194.577 448.598 193.92 448.598C192.748 448.598 191.938 448.988 191.488 449.77C191.241 450.199 191.101 450.811 191.068 451.605H189.33C189.33 450.564 189.538 449.678 189.955 448.949C190.671 447.647 191.931 446.996 193.734 446.996C195.16 446.996 196.264 447.315 197.045 447.953C197.826 448.585 198.217 449.503 198.217 450.707C198.217 451.566 197.986 452.263 197.523 452.797C197.237 453.129 196.866 453.389 196.41 453.578C197.146 453.78 197.719 454.171 198.129 454.75C198.546 455.323 198.754 456.026 198.754 456.859C198.754 458.194 198.314 459.281 197.436 460.121C196.557 460.961 195.31 461.381 193.695 461.381ZM205.043 447.016C206.853 447.016 208.161 447.761 208.969 449.252C209.594 450.404 209.906 451.983 209.906 453.988C209.906 455.889 209.623 457.462 209.057 458.705C208.236 460.489 206.895 461.381 205.033 461.381C203.354 461.381 202.104 460.652 201.283 459.193C200.6 457.976 200.258 456.342 200.258 454.291C200.258 452.702 200.463 451.339 200.873 450.199C201.641 448.077 203.031 447.016 205.043 447.016ZM205.023 459.779C205.935 459.779 206.661 459.376 207.201 458.568C207.742 457.761 208.012 456.257 208.012 454.057C208.012 452.468 207.816 451.163 207.426 450.141C207.035 449.112 206.277 448.598 205.15 448.598C204.115 448.598 203.357 449.086 202.875 450.062C202.4 451.033 202.162 452.465 202.162 454.359C202.162 455.785 202.315 456.931 202.621 457.797C203.09 459.118 203.891 459.779 205.023 459.779ZM224.398 454.203C225.336 454.203 226.137 454.535 226.801 455.199C227.465 455.863 227.797 456.664 227.797 457.602C227.797 458.539 227.465 459.34 226.801 460.004C226.137 460.668 225.336 461 224.398 461C223.454 461 222.65 460.668 221.986 460.004C221.322 459.34 220.99 458.539 220.99 457.602C220.99 456.664 221.322 455.863 221.986 455.199C222.65 454.535 223.454 454.203 224.398 454.203ZM222.982 447.074H224.066L216.244 461.371H215.16L222.982 447.074ZM214.809 452.855C215.368 452.855 215.844 452.66 216.234 452.27C216.632 451.872 216.83 451.397 216.83 450.844C216.83 450.29 216.632 449.818 216.234 449.428C215.844 449.031 215.368 448.832 214.809 448.832C214.255 448.832 213.78 449.027 213.383 449.418C212.992 449.809 212.797 450.284 212.797 450.844C212.797 451.397 212.992 451.872 213.383 452.27C213.78 452.66 214.255 452.855 214.809 452.855ZM214.809 447.436C215.753 447.436 216.557 447.771 217.221 448.441C217.885 449.105 218.217 449.906 218.217 450.844C218.217 451.781 217.885 452.582 217.221 453.246C216.557 453.91 215.753 454.242 214.809 454.242C213.871 454.242 213.07 453.91 212.406 453.246C211.742 452.582 211.41 451.781 211.41 450.844C211.41 449.906 211.742 449.105 212.406 448.441C213.07 447.771 213.871 447.436 214.809 447.436ZM224.398 459.613C224.952 459.613 225.424 459.418 225.814 459.027C226.212 458.63 226.41 458.155 226.41 457.602C226.41 457.048 226.212 456.576 225.814 456.186C225.424 455.788 224.952 455.59 224.398 455.59C223.839 455.59 223.36 455.788 222.963 456.186C222.572 456.576 222.377 457.048 222.377 457.602C222.377 458.155 222.572 458.63 222.963 459.027C223.36 459.418 223.839 459.613 224.398 459.613Z" fill="black"/>
<path d="M195.678 465.393V466.418H192.777V474H191.594V466.418H188.693V465.393H195.678ZM197.887 467.584C198.332 467.584 198.764 467.689 199.182 467.9C199.6 468.107 199.918 468.377 200.137 468.709C200.348 469.025 200.488 469.395 200.559 469.816C200.621 470.105 200.652 470.566 200.652 471.199H196.053C196.072 471.836 196.223 472.348 196.504 472.734C196.785 473.117 197.221 473.309 197.811 473.309C198.361 473.309 198.801 473.127 199.129 472.764C199.316 472.553 199.449 472.309 199.527 472.031H200.564C200.537 472.262 200.445 472.52 200.289 472.805C200.137 473.086 199.965 473.316 199.773 473.496C199.453 473.809 199.057 474.02 198.584 474.129C198.33 474.191 198.043 474.223 197.723 474.223C196.941 474.223 196.279 473.939 195.736 473.373C195.193 472.803 194.922 472.006 194.922 470.982C194.922 469.975 195.195 469.156 195.742 468.527C196.289 467.898 197.004 467.584 197.887 467.584ZM199.568 470.361C199.525 469.904 199.426 469.539 199.27 469.266C198.98 468.758 198.498 468.504 197.822 468.504C197.338 468.504 196.932 468.68 196.604 469.031C196.275 469.379 196.102 469.822 196.082 470.361H199.568ZM202.762 472.33C202.762 472.635 202.873 472.875 203.096 473.051C203.318 473.227 203.582 473.314 203.887 473.314C204.258 473.314 204.617 473.229 204.965 473.057C205.551 472.771 205.844 472.305 205.844 471.656V470.807C205.715 470.889 205.549 470.957 205.346 471.012C205.143 471.066 204.943 471.105 204.748 471.129L204.109 471.211C203.727 471.262 203.439 471.342 203.248 471.451C202.924 471.635 202.762 471.928 202.762 472.33ZM205.316 470.197C205.559 470.166 205.721 470.064 205.803 469.893C205.85 469.799 205.873 469.664 205.873 469.488C205.873 469.129 205.744 468.869 205.486 468.709C205.232 468.545 204.867 468.463 204.391 468.463C203.84 468.463 203.449 468.611 203.219 468.908C203.09 469.072 203.006 469.316 202.967 469.641H201.982C202.002 468.867 202.252 468.33 202.732 468.029C203.217 467.725 203.777 467.572 204.414 467.572C205.152 467.572 205.752 467.713 206.213 467.994C206.67 468.275 206.898 468.713 206.898 469.307V472.922C206.898 473.031 206.92 473.119 206.963 473.186C207.01 473.252 207.105 473.285 207.25 473.285C207.297 473.285 207.35 473.283 207.408 473.279C207.467 473.271 207.529 473.262 207.596 473.25V474.029C207.432 474.076 207.307 474.105 207.221 474.117C207.135 474.129 207.018 474.135 206.869 474.135C206.506 474.135 206.242 474.006 206.078 473.748C205.992 473.611 205.932 473.418 205.896 473.168C205.682 473.449 205.373 473.693 204.971 473.9C204.568 474.107 204.125 474.211 203.641 474.211C203.059 474.211 202.582 474.035 202.211 473.684C201.844 473.328 201.66 472.885 201.66 472.354C201.66 471.771 201.842 471.32 202.205 471C202.568 470.68 203.045 470.482 203.635 470.408L205.316 470.197ZM208.633 467.725H209.676V468.615C209.926 468.307 210.152 468.082 210.355 467.941C210.703 467.703 211.098 467.584 211.539 467.584C212.039 467.584 212.441 467.707 212.746 467.953C212.918 468.094 213.074 468.301 213.215 468.574C213.449 468.238 213.725 467.99 214.041 467.83C214.357 467.666 214.713 467.584 215.107 467.584C215.951 467.584 216.525 467.889 216.83 468.498C216.994 468.826 217.076 469.268 217.076 469.822V474H215.98V469.641C215.98 469.223 215.875 468.936 215.664 468.779C215.457 468.623 215.203 468.545 214.902 468.545C214.488 468.545 214.131 468.684 213.83 468.961C213.533 469.238 213.385 469.701 213.385 470.35V474H212.312V469.904C212.312 469.479 212.262 469.168 212.16 468.973C212 468.68 211.701 468.533 211.264 468.533C210.865 468.533 210.502 468.688 210.174 468.996C209.85 469.305 209.688 469.863 209.688 470.672V474H208.633V467.725ZM222.777 472.33C222.777 472.635 222.889 472.875 223.111 473.051C223.334 473.227 223.598 473.314 223.902 473.314C224.273 473.314 224.633 473.229 224.98 473.057C225.566 472.771 225.859 472.305 225.859 471.656V470.807C225.73 470.889 225.564 470.957 225.361 471.012C225.158 471.066 224.959 471.105 224.764 471.129L224.125 471.211C223.742 471.262 223.455 471.342 223.264 471.451C222.939 471.635 222.777 471.928 222.777 472.33ZM225.332 470.197C225.574 470.166 225.736 470.064 225.818 469.893C225.865 469.799 225.889 469.664 225.889 469.488C225.889 469.129 225.76 468.869 225.502 468.709C225.248 468.545 224.883 468.463 224.406 468.463C223.855 468.463 223.465 468.611 223.234 468.908C223.105 469.072 223.021 469.316 222.982 469.641H221.998C222.018 468.867 222.268 468.33 222.748 468.029C223.232 467.725 223.793 467.572 224.43 467.572C225.168 467.572 225.768 467.713 226.229 467.994C226.686 468.275 226.914 468.713 226.914 469.307V472.922C226.914 473.031 226.936 473.119 226.979 473.186C227.025 473.252 227.121 473.285 227.266 473.285C227.312 473.285 227.365 473.283 227.424 473.279C227.482 473.271 227.545 473.262 227.611 473.25V474.029C227.447 474.076 227.322 474.105 227.236 474.117C227.15 474.129 227.033 474.135 226.885 474.135C226.521 474.135 226.258 474.006 226.094 473.748C226.008 473.611 225.947 473.418 225.912 473.168C225.697 473.449 225.389 473.693 224.986 473.9C224.584 474.107 224.141 474.211 223.656 474.211C223.074 474.211 222.598 474.035 222.227 473.684C221.859 473.328 221.676 472.885 221.676 472.354C221.676 471.771 221.857 471.32 222.221 471C222.584 470.68 223.061 470.482 223.65 470.408L225.332 470.197ZM228.648 467.725H229.65V468.615C229.947 468.248 230.262 467.984 230.594 467.824C230.926 467.664 231.295 467.584 231.701 467.584C232.592 467.584 233.193 467.895 233.506 468.516C233.678 468.855 233.764 469.342 233.764 469.975V474H232.691V470.045C232.691 469.662 232.635 469.354 232.521 469.119C232.334 468.729 231.994 468.533 231.502 468.533C231.252 468.533 231.047 468.559 230.887 468.609C230.598 468.695 230.344 468.867 230.125 469.125C229.949 469.332 229.834 469.547 229.779 469.77C229.729 469.988 229.703 470.303 229.703 470.713V474H228.648V467.725ZM235.996 470.936C235.996 471.607 236.139 472.17 236.424 472.623C236.709 473.076 237.166 473.303 237.795 473.303C238.283 473.303 238.684 473.094 238.996 472.676C239.312 472.254 239.471 471.65 239.471 470.865C239.471 470.072 239.309 469.486 238.984 469.107C238.66 468.725 238.26 468.533 237.783 468.533C237.252 468.533 236.82 468.736 236.488 469.143C236.16 469.549 235.996 470.146 235.996 470.936ZM237.584 467.613C238.064 467.613 238.467 467.715 238.791 467.918C238.979 468.035 239.191 468.24 239.43 468.533V465.363H240.443V474H239.494V473.127C239.248 473.514 238.957 473.793 238.621 473.965C238.285 474.137 237.9 474.223 237.467 474.223C236.768 474.223 236.162 473.93 235.65 473.344C235.139 472.754 234.883 471.971 234.883 470.994C234.883 470.08 235.115 469.289 235.58 468.621C236.049 467.949 236.717 467.613 237.584 467.613ZM249.25 470.473L247.943 466.67L246.555 470.473H249.25ZM247.334 465.393H248.652L251.775 474H250.498L249.625 471.422H246.221L245.289 474H244.094L247.334 465.393ZM253.363 470.936C253.363 471.607 253.506 472.17 253.791 472.623C254.076 473.076 254.533 473.303 255.162 473.303C255.65 473.303 256.051 473.094 256.363 472.676C256.68 472.254 256.838 471.65 256.838 470.865C256.838 470.072 256.676 469.486 256.352 469.107C256.027 468.725 255.627 468.533 255.15 468.533C254.619 468.533 254.188 468.736 253.855 469.143C253.527 469.549 253.363 470.146 253.363 470.936ZM254.951 467.613C255.432 467.613 255.834 467.715 256.158 467.918C256.346 468.035 256.559 468.24 256.797 468.533V465.363H257.811V474H256.861V473.127C256.615 473.514 256.324 473.793 255.988 473.965C255.652 474.137 255.268 474.223 254.834 474.223C254.135 474.223 253.529 473.93 253.018 473.344C252.506 472.754 252.25 471.971 252.25 470.994C252.25 470.08 252.482 469.289 252.947 468.621C253.416 467.949 254.084 467.613 254.951 467.613ZM259.891 467.725L261.566 472.834L263.318 467.725H264.473L262.105 474H260.98L258.666 467.725H259.891ZM265.375 467.754H266.447V474H265.375V467.754ZM265.375 465.393H266.447V466.588H265.375V465.393ZM268.674 472.031C268.705 472.383 268.793 472.652 268.938 472.84C269.203 473.18 269.664 473.35 270.32 473.35C270.711 473.35 271.055 473.266 271.352 473.098C271.648 472.926 271.797 472.662 271.797 472.307C271.797 472.037 271.678 471.832 271.439 471.691C271.287 471.605 270.986 471.506 270.537 471.393L269.699 471.182C269.164 471.049 268.77 470.9 268.516 470.736C268.062 470.451 267.836 470.057 267.836 469.553C267.836 468.959 268.049 468.479 268.475 468.111C268.904 467.744 269.48 467.561 270.203 467.561C271.148 467.561 271.83 467.838 272.248 468.393C272.51 468.744 272.637 469.123 272.629 469.529H271.633C271.613 469.291 271.529 469.074 271.381 468.879C271.139 468.602 270.719 468.463 270.121 468.463C269.723 468.463 269.42 468.539 269.213 468.691C269.01 468.844 268.908 469.045 268.908 469.295C268.908 469.568 269.043 469.787 269.312 469.951C269.469 470.049 269.699 470.135 270.004 470.209L270.701 470.379C271.459 470.562 271.967 470.74 272.225 470.912C272.635 471.182 272.84 471.605 272.84 472.184C272.84 472.742 272.627 473.225 272.201 473.631C271.779 474.037 271.135 474.24 270.268 474.24C269.334 474.24 268.672 474.029 268.281 473.607C267.895 473.182 267.688 472.656 267.66 472.031H268.674ZM276.537 473.32C277.236 473.32 277.715 473.057 277.973 472.529C278.234 471.998 278.365 471.408 278.365 470.76C278.365 470.174 278.271 469.697 278.084 469.33C277.787 468.752 277.275 468.463 276.549 468.463C275.904 468.463 275.436 468.709 275.143 469.201C274.85 469.693 274.703 470.287 274.703 470.982C274.703 471.65 274.85 472.207 275.143 472.652C275.436 473.098 275.9 473.32 276.537 473.32ZM276.578 467.543C277.387 467.543 278.07 467.812 278.629 468.352C279.188 468.891 279.467 469.684 279.467 470.73C279.467 471.742 279.221 472.578 278.729 473.238C278.236 473.898 277.473 474.229 276.438 474.229C275.574 474.229 274.889 473.938 274.381 473.355C273.873 472.77 273.619 471.984 273.619 471C273.619 469.945 273.887 469.105 274.422 468.48C274.957 467.855 275.676 467.543 276.578 467.543ZM280.756 467.725H281.758V468.809C281.84 468.598 282.041 468.342 282.361 468.041C282.682 467.736 283.051 467.584 283.469 467.584C283.488 467.584 283.521 467.586 283.568 467.59C283.615 467.594 283.695 467.602 283.809 467.613V468.727C283.746 468.715 283.688 468.707 283.633 468.703C283.582 468.699 283.525 468.697 283.463 468.697C282.932 468.697 282.523 468.869 282.238 469.213C281.953 469.553 281.811 469.945 281.811 470.391V474H280.756V467.725ZM285.35 472.031C285.381 472.383 285.469 472.652 285.613 472.84C285.879 473.18 286.34 473.35 286.996 473.35C287.387 473.35 287.73 473.266 288.027 473.098C288.324 472.926 288.473 472.662 288.473 472.307C288.473 472.037 288.354 471.832 288.115 471.691C287.963 471.605 287.662 471.506 287.213 471.393L286.375 471.182C285.84 471.049 285.445 470.9 285.191 470.736C284.738 470.451 284.512 470.057 284.512 469.553C284.512 468.959 284.725 468.479 285.15 468.111C285.58 467.744 286.156 467.561 286.879 467.561C287.824 467.561 288.506 467.838 288.924 468.393C289.186 468.744 289.312 469.123 289.305 469.529H288.309C288.289 469.291 288.205 469.074 288.057 468.879C287.814 468.602 287.395 468.463 286.797 468.463C286.398 468.463 286.096 468.539 285.889 468.691C285.686 468.844 285.584 469.045 285.584 469.295C285.584 469.568 285.719 469.787 285.988 469.951C286.145 470.049 286.375 470.135 286.68 470.209L287.377 470.379C288.135 470.562 288.643 470.74 288.9 470.912C289.311 471.182 289.516 471.605 289.516 472.184C289.516 472.742 289.303 473.225 288.877 473.631C288.455 474.037 287.811 474.24 286.943 474.24C286.01 474.24 285.348 474.029 284.957 473.607C284.57 473.182 284.363 472.656 284.336 472.031H285.35Z" fill="black"/>
<rect y="206" width="135" height="48" rx="8" fill="#E1E6F2"/>
<path d="M9.91406 220.098V218.75C11.1836 218.626 12.069 218.421 12.5703 218.135C13.0716 217.842 13.446 217.155 13.6934 216.074H15.0801V230H13.2051V220.098H9.91406ZM21.6035 226.436C21.7207 227.438 22.1862 228.132 23 228.516C23.4167 228.711 23.8984 228.809 24.4453 228.809C25.487 228.809 26.2585 228.477 26.7598 227.812C27.2611 227.148 27.5117 226.413 27.5117 225.605C27.5117 224.629 27.2122 223.874 26.6133 223.34C26.0208 222.806 25.3079 222.539 24.4746 222.539C23.8691 222.539 23.3483 222.656 22.9121 222.891C22.4824 223.125 22.1146 223.451 21.8086 223.867L20.2852 223.779L21.3496 216.25H28.6152V217.949H22.668L22.0723 221.836C22.3978 221.589 22.707 221.403 23 221.279C23.5208 221.064 24.123 220.957 24.8066 220.957C26.0892 220.957 27.1764 221.37 28.0684 222.197C28.9603 223.024 29.4062 224.072 29.4062 225.342C29.4062 226.663 28.9961 227.829 28.1758 228.838C27.362 229.847 26.0599 230.352 24.2695 230.352C23.1302 230.352 22.1211 230.033 21.2422 229.395C20.3698 228.75 19.8815 227.764 19.7773 226.436H21.6035ZM43.8984 223.203C44.8359 223.203 45.6367 223.535 46.3008 224.199C46.9648 224.863 47.2969 225.664 47.2969 226.602C47.2969 227.539 46.9648 228.34 46.3008 229.004C45.6367 229.668 44.8359 230 43.8984 230C42.9544 230 42.1504 229.668 41.4863 229.004C40.8223 228.34 40.4902 227.539 40.4902 226.602C40.4902 225.664 40.8223 224.863 41.4863 224.199C42.1504 223.535 42.9544 223.203 43.8984 223.203ZM42.4824 216.074H43.5664L35.7441 230.371H34.6602L42.4824 216.074ZM34.3086 221.855C34.8685 221.855 35.3438 221.66 35.7344 221.27C36.1315 220.872 36.3301 220.397 36.3301 219.844C36.3301 219.29 36.1315 218.818 35.7344 218.428C35.3438 218.031 34.8685 217.832 34.3086 217.832C33.7552 217.832 33.2799 218.027 32.8828 218.418C32.4922 218.809 32.2969 219.284 32.2969 219.844C32.2969 220.397 32.4922 220.872 32.8828 221.27C33.2799 221.66 33.7552 221.855 34.3086 221.855ZM34.3086 216.436C35.2526 216.436 36.0566 216.771 36.7207 217.441C37.3848 218.105 37.7168 218.906 37.7168 219.844C37.7168 220.781 37.3848 221.582 36.7207 222.246C36.0566 222.91 35.2526 223.242 34.3086 223.242C33.3711 223.242 32.5703 222.91 31.9062 222.246C31.2422 221.582 30.9102 220.781 30.9102 219.844C30.9102 218.906 31.2422 218.105 31.9062 217.441C32.5703 216.771 33.3711 216.436 34.3086 216.436ZM43.8984 228.613C44.4518 228.613 44.9238 228.418 45.3145 228.027C45.7116 227.63 45.9102 227.155 45.9102 226.602C45.9102 226.048 45.7116 225.576 45.3145 225.186C44.9238 224.788 44.4518 224.59 43.8984 224.59C43.3385 224.59 42.86 224.788 42.4629 225.186C42.0723 225.576 41.877 226.048 41.877 226.602C41.877 227.155 42.0723 227.63 42.4629 228.027C42.86 228.418 43.3385 228.613 43.8984 228.613Z" fill="black"/>
<path d="M12.541 234.158C13.6309 234.158 14.4766 234.445 15.0781 235.02C15.6797 235.594 16.0137 236.246 16.0801 236.977H14.9434C14.8145 236.422 14.5566 235.982 14.1699 235.658C13.7871 235.334 13.248 235.172 12.5527 235.172C11.7051 235.172 11.0195 235.471 10.4961 236.068C9.97656 236.662 9.7168 237.574 9.7168 238.805C9.7168 239.812 9.95117 240.631 10.4199 241.26C10.8926 241.885 11.5957 242.197 12.5293 242.197C13.3887 242.197 14.043 241.867 14.4922 241.207C14.7305 240.859 14.9082 240.402 15.0254 239.836H16.1621C16.0605 240.742 15.7246 241.502 15.1543 242.115C14.4707 242.854 13.5488 243.223 12.3887 243.223C11.3887 243.223 10.5488 242.92 9.86914 242.314C8.97461 241.514 8.52734 240.277 8.52734 238.605C8.52734 237.336 8.86328 236.295 9.53516 235.482C10.2617 234.6 11.2637 234.158 12.541 234.158ZM19.9355 242.32C20.6348 242.32 21.1133 242.057 21.3711 241.529C21.6328 240.998 21.7637 240.408 21.7637 239.76C21.7637 239.174 21.6699 238.697 21.4824 238.33C21.1855 237.752 20.6738 237.463 19.9473 237.463C19.3027 237.463 18.834 237.709 18.541 238.201C18.248 238.693 18.1016 239.287 18.1016 239.982C18.1016 240.65 18.248 241.207 18.541 241.652C18.834 242.098 19.2988 242.32 19.9355 242.32ZM19.9766 236.543C20.7852 236.543 21.4688 236.812 22.0273 237.352C22.5859 237.891 22.8652 238.684 22.8652 239.73C22.8652 240.742 22.6191 241.578 22.127 242.238C21.6348 242.898 20.8711 243.229 19.8359 243.229C18.9727 243.229 18.2871 242.938 17.7793 242.355C17.2715 241.77 17.0176 240.984 17.0176 240C17.0176 238.945 17.2852 238.105 17.8203 237.48C18.3555 236.855 19.0742 236.543 19.9766 236.543ZM24.125 236.725H25.168V237.615C25.418 237.307 25.6445 237.082 25.8477 236.941C26.1953 236.703 26.5898 236.584 27.0312 236.584C27.5312 236.584 27.9336 236.707 28.2383 236.953C28.4102 237.094 28.5664 237.301 28.707 237.574C28.9414 237.238 29.2168 236.99 29.5332 236.83C29.8496 236.666 30.2051 236.584 30.5996 236.584C31.4434 236.584 32.0176 236.889 32.3223 237.498C32.4863 237.826 32.5684 238.268 32.5684 238.822V243H31.4727V238.641C31.4727 238.223 31.3672 237.936 31.1562 237.779C30.9492 237.623 30.6953 237.545 30.3945 237.545C29.9805 237.545 29.623 237.684 29.3223 237.961C29.0254 238.238 28.877 238.701 28.877 239.35V243H27.8047V238.904C27.8047 238.479 27.7539 238.168 27.6523 237.973C27.4922 237.68 27.1934 237.533 26.7559 237.533C26.3574 237.533 25.9941 237.688 25.666 237.996C25.3418 238.305 25.1797 238.863 25.1797 239.672V243H24.125V236.725ZM34.1211 236.725H35.1641V237.615C35.4141 237.307 35.6406 237.082 35.8438 236.941C36.1914 236.703 36.5859 236.584 37.0273 236.584C37.5273 236.584 37.9297 236.707 38.2344 236.953C38.4062 237.094 38.5625 237.301 38.7031 237.574C38.9375 237.238 39.2129 236.99 39.5293 236.83C39.8457 236.666 40.2012 236.584 40.5957 236.584C41.4395 236.584 42.0137 236.889 42.3184 237.498C42.4824 237.826 42.5645 238.268 42.5645 238.822V243H41.4688V238.641C41.4688 238.223 41.3633 237.936 41.1523 237.779C40.9453 237.623 40.6914 237.545 40.3906 237.545C39.9766 237.545 39.6191 237.684 39.3184 237.961C39.0215 238.238 38.873 238.701 38.873 239.35V243H37.8008V238.904C37.8008 238.479 37.75 238.168 37.6484 237.973C37.4883 237.68 37.1895 237.533 36.752 237.533C36.3535 237.533 35.9902 237.688 35.6621 237.996C35.3379 238.305 35.1758 238.863 35.1758 239.672V243H34.1211V236.725ZM45.1719 236.725V240.891C45.1719 241.211 45.2227 241.473 45.3242 241.676C45.5117 242.051 45.8613 242.238 46.373 242.238C47.1074 242.238 47.6074 241.91 47.873 241.254C48.0176 240.902 48.0898 240.42 48.0898 239.807V236.725H49.1445V243H48.1484L48.1602 242.074C48.0234 242.312 47.8535 242.514 47.6504 242.678C47.248 243.006 46.7598 243.17 46.1855 243.17C45.291 243.17 44.6816 242.871 44.3574 242.273C44.1816 241.953 44.0938 241.525 44.0938 240.99V236.725H45.1719ZM50.7969 236.725H51.7988V237.615C52.0957 237.248 52.4102 236.984 52.7422 236.824C53.0742 236.664 53.4434 236.584 53.8496 236.584C54.7402 236.584 55.3418 236.895 55.6543 237.516C55.8262 237.855 55.9121 238.342 55.9121 238.975V243H54.8398V239.045C54.8398 238.662 54.7832 238.354 54.6699 238.119C54.4824 237.729 54.1426 237.533 53.6504 237.533C53.4004 237.533 53.1953 237.559 53.0352 237.609C52.7461 237.695 52.4922 237.867 52.2734 238.125C52.0977 238.332 51.9824 238.547 51.9277 238.77C51.877 238.988 51.8516 239.303 51.8516 239.713V243H50.7969V236.725ZM57.4766 236.754H58.5488V243H57.4766V236.754ZM57.4766 234.393H58.5488V235.588H57.4766V234.393ZM60.3594 234.973H61.4258V236.725H62.4277V237.586H61.4258V241.682C61.4258 241.9 61.5 242.047 61.6484 242.121C61.7305 242.164 61.8672 242.186 62.0586 242.186C62.1094 242.186 62.1641 242.186 62.2227 242.186C62.2812 242.182 62.3496 242.176 62.4277 242.168V243C62.3066 243.035 62.1797 243.061 62.0469 243.076C61.918 243.092 61.7773 243.1 61.625 243.1C61.1328 243.1 60.7988 242.975 60.623 242.725C60.4473 242.471 60.3594 242.143 60.3594 241.74V237.586H59.5098V236.725H60.3594V234.973ZM67.4082 236.725H68.5742C68.4258 237.127 68.0957 238.045 67.584 239.479C67.2012 240.557 66.8809 241.436 66.623 242.115C66.0137 243.717 65.584 244.693 65.334 245.045C65.084 245.396 64.6543 245.572 64.0449 245.572C63.8965 245.572 63.7812 245.566 63.6992 245.555C63.6211 245.543 63.5234 245.521 63.4062 245.49V244.529C63.5898 244.58 63.7227 244.611 63.8047 244.623C63.8867 244.635 63.959 244.641 64.0215 244.641C64.2168 244.641 64.3594 244.607 64.4492 244.541C64.543 244.479 64.6211 244.4 64.6836 244.307C64.7031 244.275 64.7734 244.115 64.8945 243.826C65.0156 243.537 65.1035 243.322 65.1582 243.182L62.8379 236.725H64.0332L65.7148 241.834L67.4082 236.725ZM73.2324 234.393H74.4102V243H73.2324V234.393ZM76.168 236.725H77.1699V237.615C77.4668 237.248 77.7812 236.984 78.1133 236.824C78.4453 236.664 78.8145 236.584 79.2207 236.584C80.1113 236.584 80.7129 236.895 81.0254 237.516C81.1973 237.855 81.2832 238.342 81.2832 238.975V243H80.2109V239.045C80.2109 238.662 80.1543 238.354 80.041 238.119C79.8535 237.729 79.5137 237.533 79.0215 237.533C78.7715 237.533 78.5664 237.559 78.4062 237.609C78.1172 237.695 77.8633 237.867 77.6445 238.125C77.4688 238.332 77.3535 238.547 77.2988 238.77C77.248 238.988 77.2227 239.303 77.2227 239.713V243H76.168V236.725ZM85.2676 236.543C85.9746 236.543 86.5488 236.715 86.9902 237.059C87.4355 237.402 87.7031 237.994 87.793 238.834H86.7676C86.7051 238.447 86.5625 238.127 86.3398 237.873C86.1172 237.615 85.7598 237.486 85.2676 237.486C84.5957 237.486 84.1152 237.814 83.8262 238.471C83.6387 238.896 83.5449 239.422 83.5449 240.047C83.5449 240.676 83.6777 241.205 83.9434 241.635C84.209 242.064 84.627 242.279 85.1973 242.279C85.6348 242.279 85.9805 242.146 86.2344 241.881C86.4922 241.611 86.6699 241.244 86.7676 240.779H87.793C87.6758 241.611 87.3828 242.221 86.9141 242.607C86.4453 242.99 85.8457 243.182 85.1152 243.182C84.2949 243.182 83.6406 242.883 83.1523 242.285C82.6641 241.684 82.4199 240.934 82.4199 240.035C82.4199 238.934 82.6875 238.076 83.2227 237.463C83.7578 236.85 84.4395 236.543 85.2676 236.543ZM91.4609 236.584C91.9062 236.584 92.3379 236.689 92.7559 236.9C93.1738 237.107 93.4922 237.377 93.7109 237.709C93.9219 238.025 94.0625 238.395 94.1328 238.816C94.1953 239.105 94.2266 239.566 94.2266 240.199H89.627C89.6465 240.836 89.7969 241.348 90.0781 241.734C90.3594 242.117 90.7949 242.309 91.3848 242.309C91.9355 242.309 92.375 242.127 92.7031 241.764C92.8906 241.553 93.0234 241.309 93.1016 241.031H94.1387C94.1113 241.262 94.0195 241.52 93.8633 241.805C93.7109 242.086 93.5391 242.316 93.3477 242.496C93.0273 242.809 92.6309 243.02 92.1582 243.129C91.9043 243.191 91.6172 243.223 91.2969 243.223C90.5156 243.223 89.8535 242.939 89.3105 242.373C88.7676 241.803 88.4961 241.006 88.4961 239.982C88.4961 238.975 88.7695 238.156 89.3164 237.527C89.8633 236.898 90.5781 236.584 91.4609 236.584ZM93.1426 239.361C93.0996 238.904 93 238.539 92.8438 238.266C92.5547 237.758 92.0723 237.504 91.3965 237.504C90.9121 237.504 90.5059 237.68 90.1777 238.031C89.8496 238.379 89.6758 238.822 89.6562 239.361H93.1426ZM95.5273 236.725H96.5293V237.615C96.8262 237.248 97.1406 236.984 97.4727 236.824C97.8047 236.664 98.1738 236.584 98.5801 236.584C99.4707 236.584 100.072 236.895 100.385 237.516C100.557 237.855 100.643 238.342 100.643 238.975V243H99.5703V239.045C99.5703 238.662 99.5137 238.354 99.4004 238.119C99.2129 237.729 98.873 237.533 98.3809 237.533C98.1309 237.533 97.9258 237.559 97.7656 237.609C97.4766 237.695 97.2227 237.867 97.0039 238.125C96.8281 238.332 96.7129 238.547 96.6582 238.77C96.6074 238.988 96.582 239.303 96.582 239.713V243H95.5273V236.725ZM102.418 234.973H103.484V236.725H104.486V237.586H103.484V241.682C103.484 241.9 103.559 242.047 103.707 242.121C103.789 242.164 103.926 242.186 104.117 242.186C104.168 242.186 104.223 242.186 104.281 242.186C104.34 242.182 104.408 242.176 104.486 242.168V243C104.365 243.035 104.238 243.061 104.105 243.076C103.977 243.092 103.836 243.1 103.684 243.1C103.191 243.1 102.857 242.975 102.682 242.725C102.506 242.471 102.418 242.143 102.418 241.74V237.586H101.568V236.725H102.418V234.973ZM105.547 236.754H106.619V243H105.547V236.754ZM105.547 234.393H106.619V235.588H105.547V234.393ZM108.734 236.725L110.41 241.834L112.162 236.725H113.316L110.949 243H109.824L107.51 236.725H108.734ZM116.832 236.584C117.277 236.584 117.709 236.689 118.127 236.9C118.545 237.107 118.863 237.377 119.082 237.709C119.293 238.025 119.434 238.395 119.504 238.816C119.566 239.105 119.598 239.566 119.598 240.199H114.998C115.018 240.836 115.168 241.348 115.449 241.734C115.73 242.117 116.166 242.309 116.756 242.309C117.307 242.309 117.746 242.127 118.074 241.764C118.262 241.553 118.395 241.309 118.473 241.031H119.51C119.482 241.262 119.391 241.52 119.234 241.805C119.082 242.086 118.91 242.316 118.719 242.496C118.398 242.809 118.002 243.02 117.529 243.129C117.275 243.191 116.988 243.223 116.668 243.223C115.887 243.223 115.225 242.939 114.682 242.373C114.139 241.803 113.867 241.006 113.867 239.982C113.867 238.975 114.141 238.156 114.688 237.527C115.234 236.898 115.949 236.584 116.832 236.584ZM118.514 239.361C118.471 238.904 118.371 238.539 118.215 238.266C117.926 237.758 117.443 237.504 116.768 237.504C116.283 237.504 115.877 237.68 115.549 238.031C115.221 238.379 115.047 238.822 115.027 239.361H118.514ZM121.525 241.031C121.557 241.383 121.645 241.652 121.789 241.84C122.055 242.18 122.516 242.35 123.172 242.35C123.562 242.35 123.906 242.266 124.203 242.098C124.5 241.926 124.648 241.662 124.648 241.307C124.648 241.037 124.529 240.832 124.291 240.691C124.139 240.605 123.838 240.506 123.389 240.393L122.551 240.182C122.016 240.049 121.621 239.9 121.367 239.736C120.914 239.451 120.688 239.057 120.688 238.553C120.688 237.959 120.9 237.479 121.326 237.111C121.756 236.744 122.332 236.561 123.055 236.561C124 236.561 124.682 236.838 125.1 237.393C125.361 237.744 125.488 238.123 125.48 238.529H124.484C124.465 238.291 124.381 238.074 124.232 237.879C123.99 237.602 123.57 237.463 122.973 237.463C122.574 237.463 122.271 237.539 122.064 237.691C121.861 237.844 121.76 238.045 121.76 238.295C121.76 238.568 121.895 238.787 122.164 238.951C122.32 239.049 122.551 239.135 122.855 239.209L123.553 239.379C124.311 239.562 124.818 239.74 125.076 239.912C125.486 240.182 125.691 240.605 125.691 241.184C125.691 241.742 125.479 242.225 125.053 242.631C124.631 243.037 123.986 243.24 123.119 243.24C122.186 243.24 121.523 243.029 121.133 242.607C120.746 242.182 120.539 241.656 120.512 241.031H121.525Z" fill="black"/>
<rect x="134" y="50" width="92" height="48" rx="8" fill="#E1E6F2"/>
<path d="M143.914 64.0977V62.75C145.184 62.6263 146.069 62.4212 146.57 62.1348C147.072 61.8418 147.446 61.1549 147.693 60.0742H149.08V74H147.205V64.0977H143.914ZM158.543 60.0156C160.353 60.0156 161.661 60.7611 162.469 62.252C163.094 63.4043 163.406 64.9831 163.406 66.9883C163.406 68.8893 163.123 70.4616 162.557 71.7051C161.736 73.4889 160.395 74.3809 158.533 74.3809C156.854 74.3809 155.604 73.6517 154.783 72.1934C154.1 70.9759 153.758 69.3418 153.758 67.291C153.758 65.7025 153.963 64.3385 154.373 63.1992C155.141 61.0768 156.531 60.0156 158.543 60.0156ZM158.523 72.7793C159.435 72.7793 160.161 72.3757 160.701 71.5684C161.242 70.7611 161.512 69.2572 161.512 67.0566C161.512 65.4681 161.316 64.1628 160.926 63.1406C160.535 62.112 159.777 61.5977 158.65 61.5977C157.615 61.5977 156.857 62.0859 156.375 63.0625C155.9 64.0326 155.662 65.4648 155.662 67.3594C155.662 68.7852 155.815 69.931 156.121 70.7969C156.59 72.1185 157.391 72.7793 158.523 72.7793ZM177.898 67.2031C178.836 67.2031 179.637 67.5352 180.301 68.1992C180.965 68.8633 181.297 69.6641 181.297 70.6016C181.297 71.5391 180.965 72.3398 180.301 73.0039C179.637 73.668 178.836 74 177.898 74C176.954 74 176.15 73.668 175.486 73.0039C174.822 72.3398 174.49 71.5391 174.49 70.6016C174.49 69.6641 174.822 68.8633 175.486 68.1992C176.15 67.5352 176.954 67.2031 177.898 67.2031ZM176.482 60.0742H177.566L169.744 74.3711H168.66L176.482 60.0742ZM168.309 65.8555C168.868 65.8555 169.344 65.6602 169.734 65.2695C170.132 64.8724 170.33 64.3971 170.33 63.8438C170.33 63.2904 170.132 62.8184 169.734 62.4277C169.344 62.0306 168.868 61.832 168.309 61.832C167.755 61.832 167.28 62.0273 166.883 62.418C166.492 62.8086 166.297 63.2839 166.297 63.8438C166.297 64.3971 166.492 64.8724 166.883 65.2695C167.28 65.6602 167.755 65.8555 168.309 65.8555ZM168.309 60.4355C169.253 60.4355 170.057 60.7708 170.721 61.4414C171.385 62.1055 171.717 62.9062 171.717 63.8438C171.717 64.7812 171.385 65.582 170.721 66.2461C170.057 66.9102 169.253 67.2422 168.309 67.2422C167.371 67.2422 166.57 66.9102 165.906 66.2461C165.242 65.582 164.91 64.7812 164.91 63.8438C164.91 62.9062 165.242 62.1055 165.906 61.4414C166.57 60.7708 167.371 60.4355 168.309 60.4355ZM177.898 72.6133C178.452 72.6133 178.924 72.418 179.314 72.0273C179.712 71.6302 179.91 71.1549 179.91 70.6016C179.91 70.0482 179.712 69.5762 179.314 69.1855C178.924 68.7884 178.452 68.5898 177.898 68.5898C177.339 68.5898 176.86 68.7884 176.463 69.1855C176.072 69.5762 175.877 70.0482 175.877 70.6016C175.877 71.1549 176.072 71.6302 176.463 72.0273C176.86 72.418 177.339 72.6133 177.898 72.6133Z" fill="black"/>
<path d="M146.916 82.3359C147.463 82.3359 147.895 82.2266 148.211 82.0078C148.531 81.7891 148.691 81.3945 148.691 80.8242C148.691 80.2109 148.469 79.793 148.023 79.5703C147.785 79.4531 147.467 79.3945 147.068 79.3945H144.221V82.3359H146.916ZM143.055 78.3926H147.039C147.695 78.3926 148.236 78.4883 148.662 78.6797C149.471 79.0469 149.875 79.7246 149.875 80.7129C149.875 81.2285 149.768 81.6504 149.553 81.9785C149.342 82.3066 149.045 82.5703 148.662 82.7695C148.998 82.9062 149.25 83.0859 149.418 83.3086C149.59 83.5312 149.686 83.8926 149.705 84.3926L149.746 85.5469C149.758 85.875 149.785 86.1191 149.828 86.2793C149.898 86.5527 150.023 86.7285 150.203 86.8066V87H148.773C148.734 86.9258 148.703 86.8301 148.68 86.7129C148.656 86.5957 148.637 86.3691 148.621 86.0332L148.551 84.5977C148.523 84.0352 148.314 83.6582 147.924 83.4668C147.701 83.3613 147.352 83.3086 146.875 83.3086H144.221V87H143.055V78.3926ZM154.059 80.584C154.504 80.584 154.936 80.6895 155.354 80.9004C155.771 81.1074 156.09 81.377 156.309 81.709C156.52 82.0254 156.66 82.3945 156.73 82.8164C156.793 83.1055 156.824 83.5664 156.824 84.1992H152.225C152.244 84.8359 152.395 85.3477 152.676 85.7344C152.957 86.1172 153.393 86.3086 153.982 86.3086C154.533 86.3086 154.973 86.127 155.301 85.7637C155.488 85.5527 155.621 85.3086 155.699 85.0312H156.736C156.709 85.2617 156.617 85.5195 156.461 85.8047C156.309 86.0859 156.137 86.3164 155.945 86.4961C155.625 86.8086 155.229 87.0195 154.756 87.1289C154.502 87.1914 154.215 87.2227 153.895 87.2227C153.113 87.2227 152.451 86.9395 151.908 86.373C151.365 85.8027 151.094 85.0059 151.094 83.9824C151.094 82.9746 151.367 82.1562 151.914 81.5273C152.461 80.8984 153.176 80.584 154.059 80.584ZM155.74 83.3613C155.697 82.9043 155.598 82.5391 155.441 82.2656C155.152 81.7578 154.67 81.5039 153.994 81.5039C153.51 81.5039 153.104 81.6797 152.775 82.0312C152.447 82.3789 152.273 82.8223 152.254 83.3613H155.74ZM158.752 85.0312C158.783 85.3828 158.871 85.6523 159.016 85.8398C159.281 86.1797 159.742 86.3496 160.398 86.3496C160.789 86.3496 161.133 86.2656 161.43 86.0977C161.727 85.9258 161.875 85.6621 161.875 85.3066C161.875 85.0371 161.756 84.832 161.518 84.6914C161.365 84.6055 161.064 84.5059 160.615 84.3926L159.777 84.1816C159.242 84.0488 158.848 83.9004 158.594 83.7363C158.141 83.4512 157.914 83.0566 157.914 82.5527C157.914 81.959 158.127 81.4785 158.553 81.1113C158.982 80.7441 159.559 80.5605 160.281 80.5605C161.227 80.5605 161.908 80.8379 162.326 81.3926C162.588 81.7441 162.715 82.123 162.707 82.5293H161.711C161.691 82.291 161.607 82.0742 161.459 81.8789C161.217 81.6016 160.797 81.4629 160.199 81.4629C159.801 81.4629 159.498 81.5391 159.291 81.6914C159.088 81.8438 158.986 82.0449 158.986 82.2949C158.986 82.5684 159.121 82.7871 159.391 82.9512C159.547 83.0488 159.777 83.1348 160.082 83.209L160.779 83.3789C161.537 83.5625 162.045 83.7402 162.303 83.9121C162.713 84.1816 162.918 84.6055 162.918 85.1836C162.918 85.7422 162.705 86.2246 162.279 86.6309C161.857 87.0371 161.213 87.2402 160.346 87.2402C159.412 87.2402 158.75 87.0293 158.359 86.6074C157.973 86.1816 157.766 85.6562 157.738 85.0312H158.752ZM166.738 80.584C167.184 80.584 167.615 80.6895 168.033 80.9004C168.451 81.1074 168.77 81.377 168.988 81.709C169.199 82.0254 169.34 82.3945 169.41 82.8164C169.473 83.1055 169.504 83.5664 169.504 84.1992H164.904C164.924 84.8359 165.074 85.3477 165.355 85.7344C165.637 86.1172 166.072 86.3086 166.662 86.3086C167.213 86.3086 167.652 86.127 167.98 85.7637C168.168 85.5527 168.301 85.3086 168.379 85.0312H169.416C169.389 85.2617 169.297 85.5195 169.141 85.8047C168.988 86.0859 168.816 86.3164 168.625 86.4961C168.305 86.8086 167.908 87.0195 167.436 87.1289C167.182 87.1914 166.895 87.2227 166.574 87.2227C165.793 87.2227 165.131 86.9395 164.588 86.373C164.045 85.8027 163.773 85.0059 163.773 83.9824C163.773 82.9746 164.047 82.1562 164.594 81.5273C165.141 80.8984 165.855 80.584 166.738 80.584ZM168.42 83.3613C168.377 82.9043 168.277 82.5391 168.121 82.2656C167.832 81.7578 167.35 81.5039 166.674 81.5039C166.189 81.5039 165.783 81.6797 165.455 82.0312C165.127 82.3789 164.953 82.8223 164.934 83.3613H168.42ZM170.834 80.7246H171.836V81.8086C171.918 81.5977 172.119 81.3418 172.439 81.041C172.76 80.7363 173.129 80.584 173.547 80.584C173.566 80.584 173.6 80.5859 173.646 80.5898C173.693 80.5938 173.773 80.6016 173.887 80.6133V81.7266C173.824 81.7148 173.766 81.707 173.711 81.7031C173.66 81.6992 173.604 81.6973 173.541 81.6973C173.01 81.6973 172.602 81.8691 172.316 82.2129C172.031 82.5527 171.889 82.9453 171.889 83.3906V87H170.834V80.7246ZM175.316 80.7246L176.992 85.834L178.744 80.7246H179.898L177.531 87H176.406L174.092 80.7246H175.316ZM183.414 80.584C183.859 80.584 184.291 80.6895 184.709 80.9004C185.127 81.1074 185.445 81.377 185.664 81.709C185.875 82.0254 186.016 82.3945 186.086 82.8164C186.148 83.1055 186.18 83.5664 186.18 84.1992H181.58C181.6 84.8359 181.75 85.3477 182.031 85.7344C182.312 86.1172 182.748 86.3086 183.338 86.3086C183.889 86.3086 184.328 86.127 184.656 85.7637C184.844 85.5527 184.977 85.3086 185.055 85.0312H186.092C186.064 85.2617 185.973 85.5195 185.816 85.8047C185.664 86.0859 185.492 86.3164 185.301 86.4961C184.98 86.8086 184.584 87.0195 184.111 87.1289C183.857 87.1914 183.57 87.2227 183.25 87.2227C182.469 87.2227 181.807 86.9395 181.264 86.373C180.721 85.8027 180.449 85.0059 180.449 83.9824C180.449 82.9746 180.723 82.1562 181.27 81.5273C181.816 80.8984 182.531 80.584 183.414 80.584ZM185.096 83.3613C185.053 82.9043 184.953 82.5391 184.797 82.2656C184.508 81.7578 184.025 81.5039 183.35 81.5039C182.865 81.5039 182.459 81.6797 182.131 82.0312C181.803 82.3789 181.629 82.8223 181.609 83.3613H185.096ZM191.072 78.3926H197.043V79.4473H192.238V82.0605H196.463V83.0859H192.238V87H191.072V78.3926ZM199.211 80.7246V84.8906C199.211 85.2109 199.262 85.4727 199.363 85.6758C199.551 86.0508 199.9 86.2383 200.412 86.2383C201.146 86.2383 201.646 85.9102 201.912 85.2539C202.057 84.9023 202.129 84.4199 202.129 83.8066V80.7246H203.184V87H202.188L202.199 86.0742C202.062 86.3125 201.893 86.5137 201.689 86.6777C201.287 87.0059 200.799 87.1699 200.225 87.1699C199.33 87.1699 198.721 86.8711 198.396 86.2734C198.221 85.9531 198.133 85.5254 198.133 84.9902V80.7246H199.211ZM204.836 80.7246H205.838V81.6152C206.135 81.248 206.449 80.9844 206.781 80.8242C207.113 80.6641 207.482 80.584 207.889 80.584C208.779 80.584 209.381 80.8945 209.693 81.5156C209.865 81.8555 209.951 82.3418 209.951 82.9746V87H208.879V83.0449C208.879 82.6621 208.822 82.3535 208.709 82.1191C208.521 81.7285 208.182 81.5332 207.689 81.5332C207.439 81.5332 207.234 81.5586 207.074 81.6094C206.785 81.6953 206.531 81.8672 206.312 82.125C206.137 82.332 206.021 82.5469 205.967 82.7695C205.916 82.9883 205.891 83.3027 205.891 83.7129V87H204.836V80.7246ZM212.184 83.9355C212.184 84.6074 212.326 85.1699 212.611 85.623C212.896 86.0762 213.354 86.3027 213.982 86.3027C214.471 86.3027 214.871 86.0938 215.184 85.6758C215.5 85.2539 215.658 84.6504 215.658 83.8652C215.658 83.0723 215.496 82.4863 215.172 82.1074C214.848 81.7246 214.447 81.5332 213.971 81.5332C213.439 81.5332 213.008 81.7363 212.676 82.1426C212.348 82.5488 212.184 83.1465 212.184 83.9355ZM213.771 80.6133C214.252 80.6133 214.654 80.7148 214.979 80.918C215.166 81.0352 215.379 81.2402 215.617 81.5332V78.3633H216.631V87H215.682V86.127C215.436 86.5137 215.145 86.793 214.809 86.9648C214.473 87.1367 214.088 87.2227 213.654 87.2227C212.955 87.2227 212.35 86.9297 211.838 86.3438C211.326 85.7539 211.07 84.9707 211.07 83.9941C211.07 83.0801 211.303 82.2891 211.768 81.6211C212.236 80.9492 212.904 80.6133 213.771 80.6133Z" fill="black"/>
<rect x="317" width="211" height="48" rx="8" fill="#E1E6F2"/>
<path d="M327.471 20.4355C327.588 21.4382 328.053 22.1315 328.867 22.5156C329.284 22.7109 329.766 22.8086 330.312 22.8086C331.354 22.8086 332.126 22.4766 332.627 21.8125C333.128 21.1484 333.379 20.4128 333.379 19.6055C333.379 18.6289 333.079 17.8737 332.48 17.3398C331.888 16.806 331.175 16.5391 330.342 16.5391C329.736 16.5391 329.215 16.6562 328.779 16.8906C328.35 17.125 327.982 17.4505 327.676 17.8672L326.152 17.7793L327.217 10.25H334.482V11.9492H328.535L327.939 15.8359C328.265 15.5885 328.574 15.403 328.867 15.2793C329.388 15.0645 329.99 14.957 330.674 14.957C331.956 14.957 333.044 15.3704 333.936 16.1973C334.827 17.0241 335.273 18.0723 335.273 19.3418C335.273 20.6634 334.863 21.8288 334.043 22.8379C333.229 23.847 331.927 24.3516 330.137 24.3516C328.997 24.3516 327.988 24.0326 327.109 23.3945C326.237 22.75 325.749 21.7637 325.645 20.4355H327.471ZM349.766 17.2031C350.703 17.2031 351.504 17.5352 352.168 18.1992C352.832 18.8633 353.164 19.6641 353.164 20.6016C353.164 21.5391 352.832 22.3398 352.168 23.0039C351.504 23.668 350.703 24 349.766 24C348.822 24 348.018 23.668 347.354 23.0039C346.689 22.3398 346.357 21.5391 346.357 20.6016C346.357 19.6641 346.689 18.8633 347.354 18.1992C348.018 17.5352 348.822 17.2031 349.766 17.2031ZM348.35 10.0742H349.434L341.611 24.3711H340.527L348.35 10.0742ZM340.176 15.8555C340.736 15.8555 341.211 15.6602 341.602 15.2695C341.999 14.8724 342.197 14.3971 342.197 13.8438C342.197 13.2904 341.999 12.8184 341.602 12.4277C341.211 12.0306 340.736 11.832 340.176 11.832C339.622 11.832 339.147 12.0273 338.75 12.418C338.359 12.8086 338.164 13.2839 338.164 13.8438C338.164 14.3971 338.359 14.8724 338.75 15.2695C339.147 15.6602 339.622 15.8555 340.176 15.8555ZM340.176 10.4355C341.12 10.4355 341.924 10.7708 342.588 11.4414C343.252 12.1055 343.584 12.9062 343.584 13.8438C343.584 14.7812 343.252 15.582 342.588 16.2461C341.924 16.9102 341.12 17.2422 340.176 17.2422C339.238 17.2422 338.438 16.9102 337.773 16.2461C337.109 15.582 336.777 14.7812 336.777 13.8438C336.777 12.9062 337.109 12.1055 337.773 11.4414C338.438 10.7708 339.238 10.4355 340.176 10.4355ZM349.766 22.6133C350.319 22.6133 350.791 22.418 351.182 22.0273C351.579 21.6302 351.777 21.1549 351.777 20.6016C351.777 20.0482 351.579 19.5762 351.182 19.1855C350.791 18.7884 350.319 18.5898 349.766 18.5898C349.206 18.5898 348.727 18.7884 348.33 19.1855C347.939 19.5762 347.744 20.0482 347.744 20.6016C347.744 21.1549 347.939 21.6302 348.33 22.0273C348.727 22.418 349.206 22.6133 349.766 22.6133Z" fill="black"/>
<path d="M326.025 28.3926H329.898C330.664 28.3926 331.281 28.6094 331.75 29.043C332.219 29.4727 332.453 30.0781 332.453 30.8594C332.453 31.5312 332.244 32.1172 331.826 32.6172C331.408 33.1133 330.766 33.3613 329.898 33.3613H327.191V37H326.025V28.3926ZM331.275 30.8652C331.275 30.2324 331.041 29.8027 330.572 29.5762C330.314 29.4551 329.961 29.3945 329.512 29.3945H327.191V32.377H329.512C330.035 32.377 330.459 32.2656 330.783 32.043C331.111 31.8203 331.275 31.4277 331.275 30.8652ZM334.586 35.3301C334.586 35.6348 334.697 35.875 334.92 36.0508C335.143 36.2266 335.406 36.3145 335.711 36.3145C336.082 36.3145 336.441 36.2285 336.789 36.0566C337.375 35.7715 337.668 35.3047 337.668 34.6562V33.8066C337.539 33.8887 337.373 33.957 337.17 34.0117C336.967 34.0664 336.768 34.1055 336.572 34.1289L335.934 34.2109C335.551 34.2617 335.264 34.3418 335.072 34.4512C334.748 34.6348 334.586 34.9277 334.586 35.3301ZM337.141 33.1973C337.383 33.166 337.545 33.0645 337.627 32.8926C337.674 32.7988 337.697 32.6641 337.697 32.4883C337.697 32.1289 337.568 31.8691 337.311 31.709C337.057 31.5449 336.691 31.4629 336.215 31.4629C335.664 31.4629 335.273 31.6113 335.043 31.9082C334.914 32.0723 334.83 32.3164 334.791 32.6406H333.807C333.826 31.8672 334.076 31.3301 334.557 31.0293C335.041 30.7246 335.602 30.5723 336.238 30.5723C336.977 30.5723 337.576 30.7129 338.037 30.9941C338.494 31.2754 338.723 31.7129 338.723 32.3066V35.9219C338.723 36.0312 338.744 36.1191 338.787 36.1855C338.834 36.252 338.93 36.2852 339.074 36.2852C339.121 36.2852 339.174 36.2832 339.232 36.2793C339.291 36.2715 339.354 36.2617 339.42 36.25V37.0293C339.256 37.0762 339.131 37.1055 339.045 37.1172C338.959 37.1289 338.842 37.1348 338.693 37.1348C338.33 37.1348 338.066 37.0059 337.902 36.748C337.816 36.6113 337.756 36.418 337.721 36.168C337.506 36.4492 337.197 36.6934 336.795 36.9004C336.393 37.1074 335.949 37.2109 335.465 37.2109C334.883 37.2109 334.406 37.0352 334.035 36.6836C333.668 36.3281 333.484 35.8848 333.484 35.3535C333.484 34.7715 333.666 34.3203 334.029 34C334.393 33.6797 334.869 33.4824 335.459 33.4082L337.141 33.1973ZM340.486 30.7246H341.488V31.8086C341.57 31.5977 341.771 31.3418 342.092 31.041C342.412 30.7363 342.781 30.584 343.199 30.584C343.219 30.584 343.252 30.5859 343.299 30.5898C343.346 30.5938 343.426 30.6016 343.539 30.6133V31.7266C343.477 31.7148 343.418 31.707 343.363 31.7031C343.312 31.6992 343.256 31.6973 343.193 31.6973C342.662 31.6973 342.254 31.8691 341.969 32.2129C341.684 32.5527 341.541 32.9453 341.541 33.3906V37H340.486V30.7246ZM344.664 28.9727H345.73V30.7246H346.732V31.5859H345.73V35.6816C345.73 35.9004 345.805 36.0469 345.953 36.1211C346.035 36.1641 346.172 36.1855 346.363 36.1855C346.414 36.1855 346.469 36.1855 346.527 36.1855C346.586 36.1816 346.654 36.1758 346.732 36.168V37C346.611 37.0352 346.484 37.0605 346.352 37.0762C346.223 37.0918 346.082 37.0996 345.93 37.0996C345.438 37.0996 345.104 36.9746 344.928 36.7246C344.752 36.4707 344.664 36.1426 344.664 35.7402V31.5859H343.814V30.7246H344.664V28.9727ZM347.793 30.7246H348.795V31.6152C349.092 31.248 349.406 30.9844 349.738 30.8242C350.07 30.6641 350.439 30.584 350.846 30.584C351.736 30.584 352.338 30.8945 352.65 31.5156C352.822 31.8555 352.908 32.3418 352.908 32.9746V37H351.836V33.0449C351.836 32.6621 351.779 32.3535 351.666 32.1191C351.479 31.7285 351.139 31.5332 350.646 31.5332C350.396 31.5332 350.191 31.5586 350.031 31.6094C349.742 31.6953 349.488 31.8672 349.27 32.125C349.094 32.332 348.979 32.5469 348.924 32.7695C348.873 32.9883 348.848 33.3027 348.848 33.7129V37H347.793V30.7246ZM357.086 30.584C357.531 30.584 357.963 30.6895 358.381 30.9004C358.799 31.1074 359.117 31.377 359.336 31.709C359.547 32.0254 359.688 32.3945 359.758 32.8164C359.82 33.1055 359.852 33.5664 359.852 34.1992H355.252C355.271 34.8359 355.422 35.3477 355.703 35.7344C355.984 36.1172 356.42 36.3086 357.01 36.3086C357.561 36.3086 358 36.127 358.328 35.7637C358.516 35.5527 358.648 35.3086 358.727 35.0312H359.764C359.736 35.2617 359.645 35.5195 359.488 35.8047C359.336 36.0859 359.164 36.3164 358.973 36.4961C358.652 36.8086 358.256 37.0195 357.783 37.1289C357.529 37.1914 357.242 37.2227 356.922 37.2227C356.141 37.2227 355.479 36.9395 354.936 36.373C354.393 35.8027 354.121 35.0059 354.121 33.9824C354.121 32.9746 354.395 32.1562 354.941 31.5273C355.488 30.8984 356.203 30.584 357.086 30.584ZM358.768 33.3613C358.725 32.9043 358.625 32.5391 358.469 32.2656C358.18 31.7578 357.697 31.5039 357.021 31.5039C356.537 31.5039 356.131 31.6797 355.803 32.0312C355.475 32.3789 355.301 32.8223 355.281 33.3613H358.768ZM361.182 30.7246H362.184V31.8086C362.266 31.5977 362.467 31.3418 362.787 31.041C363.107 30.7363 363.477 30.584 363.895 30.584C363.914 30.584 363.947 30.5859 363.994 30.5898C364.041 30.5938 364.121 30.6016 364.234 30.6133V31.7266C364.172 31.7148 364.113 31.707 364.059 31.7031C364.008 31.6992 363.951 31.6973 363.889 31.6973C363.357 31.6973 362.949 31.8691 362.664 32.2129C362.379 32.5527 362.236 32.9453 362.236 33.3906V37H361.182V30.7246ZM365.775 35.0312C365.807 35.3828 365.895 35.6523 366.039 35.8398C366.305 36.1797 366.766 36.3496 367.422 36.3496C367.812 36.3496 368.156 36.2656 368.453 36.0977C368.75 35.9258 368.898 35.6621 368.898 35.3066C368.898 35.0371 368.779 34.832 368.541 34.6914C368.389 34.6055 368.088 34.5059 367.639 34.3926L366.801 34.1816C366.266 34.0488 365.871 33.9004 365.617 33.7363C365.164 33.4512 364.938 33.0566 364.938 32.5527C364.938 31.959 365.15 31.4785 365.576 31.1113C366.006 30.7441 366.582 30.5605 367.305 30.5605C368.25 30.5605 368.932 30.8379 369.35 31.3926C369.611 31.7441 369.738 32.123 369.73 32.5293H368.734C368.715 32.291 368.631 32.0742 368.482 31.8789C368.24 31.6016 367.82 31.4629 367.223 31.4629C366.824 31.4629 366.521 31.5391 366.314 31.6914C366.111 31.8438 366.01 32.0449 366.01 32.2949C366.01 32.5684 366.145 32.7871 366.414 32.9512C366.57 33.0488 366.801 33.1348 367.105 33.209L367.803 33.3789C368.561 33.5625 369.068 33.7402 369.326 33.9121C369.736 34.1816 369.941 34.6055 369.941 35.1836C369.941 35.7422 369.729 36.2246 369.303 36.6309C368.881 37.0371 368.236 37.2402 367.369 37.2402C366.436 37.2402 365.773 37.0293 365.383 36.6074C364.996 36.1816 364.789 35.6562 364.762 35.0312H365.775ZM371.148 28.3633H372.203V31.5742C372.453 31.2578 372.678 31.0352 372.877 30.9062C373.217 30.6836 373.641 30.5723 374.148 30.5723C375.059 30.5723 375.676 30.8906 376 31.5273C376.176 31.875 376.264 32.3574 376.264 32.9746V37H375.18V33.0449C375.18 32.584 375.121 32.2461 375.004 32.0312C374.812 31.6875 374.453 31.5156 373.926 31.5156C373.488 31.5156 373.092 31.666 372.736 31.9668C372.381 32.2676 372.203 32.8359 372.203 33.6719V37H371.148V28.3633ZM377.828 30.7539H378.9V37H377.828V30.7539ZM377.828 28.3926H378.9V29.5879H377.828V28.3926ZM383.148 36.291C383.641 36.291 384.049 36.0859 384.373 35.6758C384.701 35.2617 384.865 34.6445 384.865 33.8242C384.865 33.3242 384.793 32.8945 384.648 32.5352C384.375 31.8438 383.875 31.498 383.148 31.498C382.418 31.498 381.918 31.8633 381.648 32.5938C381.504 32.9844 381.432 33.4805 381.432 34.082C381.432 34.5664 381.504 34.9785 381.648 35.3184C381.922 35.9668 382.422 36.291 383.148 36.291ZM380.418 30.7539H381.443V31.5859C381.654 31.3008 381.885 31.0801 382.135 30.9238C382.49 30.6895 382.908 30.5723 383.389 30.5723C384.1 30.5723 384.703 30.8457 385.199 31.3926C385.695 31.9355 385.943 32.7129 385.943 33.7246C385.943 35.0918 385.586 36.0684 384.871 36.6543C384.418 37.0254 383.891 37.2109 383.289 37.2109C382.816 37.2109 382.42 37.1074 382.1 36.9004C381.912 36.7832 381.703 36.582 381.473 36.2969V39.502H380.418V30.7539ZM387.807 35.0312C387.838 35.3828 387.926 35.6523 388.07 35.8398C388.336 36.1797 388.797 36.3496 389.453 36.3496C389.844 36.3496 390.188 36.2656 390.484 36.0977C390.781 35.9258 390.93 35.6621 390.93 35.3066C390.93 35.0371 390.811 34.832 390.572 34.6914C390.42 34.6055 390.119 34.5059 389.67 34.3926L388.832 34.1816C388.297 34.0488 387.902 33.9004 387.648 33.7363C387.195 33.4512 386.969 33.0566 386.969 32.5527C386.969 31.959 387.182 31.4785 387.607 31.1113C388.037 30.7441 388.613 30.5605 389.336 30.5605C390.281 30.5605 390.963 30.8379 391.381 31.3926C391.643 31.7441 391.77 32.123 391.762 32.5293H390.766C390.746 32.291 390.662 32.0742 390.514 31.8789C390.271 31.6016 389.852 31.4629 389.254 31.4629C388.855 31.4629 388.553 31.5391 388.346 31.6914C388.143 31.8438 388.041 32.0449 388.041 32.2949C388.041 32.5684 388.176 32.7871 388.445 32.9512C388.602 33.0488 388.832 33.1348 389.137 33.209L389.834 33.3789C390.592 33.5625 391.1 33.7402 391.357 33.9121C391.768 34.1816 391.973 34.6055 391.973 35.1836C391.973 35.7422 391.76 36.2246 391.334 36.6309C390.912 37.0371 390.268 37.2402 389.4 37.2402C388.467 37.2402 387.805 37.0293 387.414 36.6074C387.027 36.1816 386.82 35.6562 386.793 35.0312H387.807ZM397.328 35.3301C397.328 35.6348 397.439 35.875 397.662 36.0508C397.885 36.2266 398.148 36.3145 398.453 36.3145C398.824 36.3145 399.184 36.2285 399.531 36.0566C400.117 35.7715 400.41 35.3047 400.41 34.6562V33.8066C400.281 33.8887 400.115 33.957 399.912 34.0117C399.709 34.0664 399.51 34.1055 399.314 34.1289L398.676 34.2109C398.293 34.2617 398.006 34.3418 397.814 34.4512C397.49 34.6348 397.328 34.9277 397.328 35.3301ZM399.883 33.1973C400.125 33.166 400.287 33.0645 400.369 32.8926C400.416 32.7988 400.439 32.6641 400.439 32.4883C400.439 32.1289 400.311 31.8691 400.053 31.709C399.799 31.5449 399.434 31.4629 398.957 31.4629C398.406 31.4629 398.016 31.6113 397.785 31.9082C397.656 32.0723 397.572 32.3164 397.533 32.6406H396.549C396.568 31.8672 396.818 31.3301 397.299 31.0293C397.783 30.7246 398.344 30.5723 398.98 30.5723C399.719 30.5723 400.318 30.7129 400.779 30.9941C401.236 31.2754 401.465 31.7129 401.465 32.3066V35.9219C401.465 36.0312 401.486 36.1191 401.529 36.1855C401.576 36.252 401.672 36.2852 401.816 36.2852C401.863 36.2852 401.916 36.2832 401.975 36.2793C402.033 36.2715 402.096 36.2617 402.162 36.25V37.0293C401.998 37.0762 401.873 37.1055 401.787 37.1172C401.701 37.1289 401.584 37.1348 401.436 37.1348C401.072 37.1348 400.809 37.0059 400.645 36.748C400.559 36.6113 400.498 36.418 400.463 36.168C400.248 36.4492 399.939 36.6934 399.537 36.9004C399.135 37.1074 398.691 37.2109 398.207 37.2109C397.625 37.2109 397.148 37.0352 396.777 36.6836C396.41 36.3281 396.227 35.8848 396.227 35.3535C396.227 34.7715 396.408 34.3203 396.771 34C397.135 33.6797 397.611 33.4824 398.201 33.4082L399.883 33.1973ZM403.199 30.7246H404.201V31.6152C404.498 31.248 404.812 30.9844 405.145 30.8242C405.477 30.6641 405.846 30.584 406.252 30.584C407.143 30.584 407.744 30.8945 408.057 31.5156C408.229 31.8555 408.314 32.3418 408.314 32.9746V37H407.242V33.0449C407.242 32.6621 407.186 32.3535 407.072 32.1191C406.885 31.7285 406.545 31.5332 406.053 31.5332C405.803 31.5332 405.598 31.5586 405.438 31.6094C405.148 31.6953 404.895 31.8672 404.676 32.125C404.5 32.332 404.385 32.5469 404.33 32.7695C404.279 32.9883 404.254 33.3027 404.254 33.7129V37H403.199V30.7246ZM410.547 33.9355C410.547 34.6074 410.689 35.1699 410.975 35.623C411.26 36.0762 411.717 36.3027 412.346 36.3027C412.834 36.3027 413.234 36.0938 413.547 35.6758C413.863 35.2539 414.021 34.6504 414.021 33.8652C414.021 33.0723 413.859 32.4863 413.535 32.1074C413.211 31.7246 412.811 31.5332 412.334 31.5332C411.803 31.5332 411.371 31.7363 411.039 32.1426C410.711 32.5488 410.547 33.1465 410.547 33.9355ZM412.135 30.6133C412.615 30.6133 413.018 30.7148 413.342 30.918C413.529 31.0352 413.742 31.2402 413.98 31.5332V28.3633H414.994V37H414.045V36.127C413.799 36.5137 413.508 36.793 413.172 36.9648C412.836 37.1367 412.451 37.2227 412.018 37.2227C411.318 37.2227 410.713 36.9297 410.201 36.3438C409.689 35.7539 409.434 34.9707 409.434 33.9941C409.434 33.0801 409.666 32.2891 410.131 31.6211C410.6 30.9492 411.268 30.6133 412.135 30.6133ZM420.801 34.2227C420.828 34.7109 420.943 35.1074 421.146 35.4121C421.533 35.9824 422.215 36.2676 423.191 36.2676C423.629 36.2676 424.027 36.2051 424.387 36.0801C425.082 35.8379 425.43 35.4043 425.43 34.7793C425.43 34.3105 425.283 33.9766 424.99 33.7773C424.693 33.582 424.229 33.4121 423.596 33.2676L422.43 33.0039C421.668 32.832 421.129 32.6426 420.812 32.4355C420.266 32.0762 419.992 31.5391 419.992 30.8242C419.992 30.0508 420.26 29.416 420.795 28.9199C421.33 28.4238 422.088 28.1758 423.068 28.1758C423.971 28.1758 424.736 28.3945 425.365 28.832C425.998 29.2656 426.314 29.9609 426.314 30.918H425.219C425.16 30.457 425.035 30.1035 424.844 29.8574C424.488 29.4082 423.885 29.1836 423.033 29.1836C422.346 29.1836 421.852 29.3281 421.551 29.6172C421.25 29.9062 421.1 30.2422 421.1 30.625C421.1 31.0469 421.275 31.3555 421.627 31.5508C421.857 31.6758 422.379 31.832 423.191 32.0195L424.398 32.2949C424.98 32.4277 425.43 32.6094 425.746 32.8398C426.293 33.2422 426.566 33.8262 426.566 34.5918C426.566 35.5449 426.219 36.2266 425.523 36.6367C424.832 37.0469 424.027 37.252 423.109 37.252C422.039 37.252 421.201 36.9785 420.596 36.4316C419.99 35.8887 419.693 35.1523 419.705 34.2227H420.801ZM428.113 28.9727H429.18V30.7246H430.182V31.5859H429.18V35.6816C429.18 35.9004 429.254 36.0469 429.402 36.1211C429.484 36.1641 429.621 36.1855 429.812 36.1855C429.863 36.1855 429.918 36.1855 429.977 36.1855C430.035 36.1816 430.104 36.1758 430.182 36.168V37C430.061 37.0352 429.934 37.0605 429.801 37.0762C429.672 37.0918 429.531 37.0996 429.379 37.0996C428.887 37.0996 428.553 36.9746 428.377 36.7246C428.201 36.4707 428.113 36.1426 428.113 35.7402V31.5859H427.264V30.7246H428.113V28.9727ZM431.271 30.7246H432.273V31.8086C432.355 31.5977 432.557 31.3418 432.877 31.041C433.197 30.7363 433.566 30.584 433.984 30.584C434.004 30.584 434.037 30.5859 434.084 30.5898C434.131 30.5938 434.211 30.6016 434.324 30.6133V31.7266C434.262 31.7148 434.203 31.707 434.148 31.7031C434.098 31.6992 434.041 31.6973 433.979 31.6973C433.447 31.6973 433.039 31.8691 432.754 32.2129C432.469 32.5527 432.326 32.9453 432.326 33.3906V37H431.271V30.7246ZM436.047 35.3301C436.047 35.6348 436.158 35.875 436.381 36.0508C436.604 36.2266 436.867 36.3145 437.172 36.3145C437.543 36.3145 437.902 36.2285 438.25 36.0566C438.836 35.7715 439.129 35.3047 439.129 34.6562V33.8066C439 33.8887 438.834 33.957 438.631 34.0117C438.428 34.0664 438.229 34.1055 438.033 34.1289L437.395 34.2109C437.012 34.2617 436.725 34.3418 436.533 34.4512C436.209 34.6348 436.047 34.9277 436.047 35.3301ZM438.602 33.1973C438.844 33.166 439.006 33.0645 439.088 32.8926C439.135 32.7988 439.158 32.6641 439.158 32.4883C439.158 32.1289 439.029 31.8691 438.771 31.709C438.518 31.5449 438.152 31.4629 437.676 31.4629C437.125 31.4629 436.734 31.6113 436.504 31.9082C436.375 32.0723 436.291 32.3164 436.252 32.6406H435.268C435.287 31.8672 435.537 31.3301 436.018 31.0293C436.502 30.7246 437.062 30.5723 437.699 30.5723C438.438 30.5723 439.037 30.7129 439.498 30.9941C439.955 31.2754 440.184 31.7129 440.184 32.3066V35.9219C440.184 36.0312 440.205 36.1191 440.248 36.1855C440.295 36.252 440.391 36.2852 440.535 36.2852C440.582 36.2852 440.635 36.2832 440.693 36.2793C440.752 36.2715 440.814 36.2617 440.881 36.25V37.0293C440.717 37.0762 440.592 37.1055 440.506 37.1172C440.42 37.1289 440.303 37.1348 440.154 37.1348C439.791 37.1348 439.527 37.0059 439.363 36.748C439.277 36.6113 439.217 36.418 439.182 36.168C438.967 36.4492 438.658 36.6934 438.256 36.9004C437.854 37.1074 437.41 37.2109 436.926 37.2109C436.344 37.2109 435.867 37.0352 435.496 36.6836C435.129 36.3281 434.945 35.8848 434.945 35.3535C434.945 34.7715 435.127 34.3203 435.49 34C435.854 33.6797 436.33 33.4824 436.92 33.4082L438.602 33.1973ZM442.129 28.9727H443.195V30.7246H444.197V31.5859H443.195V35.6816C443.195 35.9004 443.27 36.0469 443.418 36.1211C443.5 36.1641 443.637 36.1855 443.828 36.1855C443.879 36.1855 443.934 36.1855 443.992 36.1855C444.051 36.1816 444.119 36.1758 444.197 36.168V37C444.076 37.0352 443.949 37.0605 443.816 37.0762C443.688 37.0918 443.547 37.0996 443.395 37.0996C442.902 37.0996 442.568 36.9746 442.393 36.7246C442.217 36.4707 442.129 36.1426 442.129 35.7402V31.5859H441.279V30.7246H442.129V28.9727ZM447.871 30.584C448.316 30.584 448.748 30.6895 449.166 30.9004C449.584 31.1074 449.902 31.377 450.121 31.709C450.332 32.0254 450.473 32.3945 450.543 32.8164C450.605 33.1055 450.637 33.5664 450.637 34.1992H446.037C446.057 34.8359 446.207 35.3477 446.488 35.7344C446.77 36.1172 447.205 36.3086 447.795 36.3086C448.346 36.3086 448.785 36.127 449.113 35.7637C449.301 35.5527 449.434 35.3086 449.512 35.0312H450.549C450.521 35.2617 450.43 35.5195 450.273 35.8047C450.121 36.0859 449.949 36.3164 449.758 36.4961C449.438 36.8086 449.041 37.0195 448.568 37.1289C448.314 37.1914 448.027 37.2227 447.707 37.2227C446.926 37.2227 446.264 36.9395 445.721 36.373C445.178 35.8027 444.906 35.0059 444.906 33.9824C444.906 32.9746 445.18 32.1562 445.727 31.5273C446.273 30.8984 446.988 30.584 447.871 30.584ZM449.553 33.3613C449.51 32.9043 449.41 32.5391 449.254 32.2656C448.965 31.7578 448.482 31.5039 447.807 31.5039C447.322 31.5039 446.916 31.6797 446.588 32.0312C446.26 32.3789 446.086 32.8223 446.066 33.3613H449.553ZM454.152 30.6133C454.645 30.6133 455.074 30.7344 455.441 30.9766C455.641 31.1133 455.844 31.3125 456.051 31.5742V30.7832H457.023V36.4902C457.023 37.2871 456.906 37.916 456.672 38.377C456.234 39.2285 455.408 39.6543 454.193 39.6543C453.518 39.6543 452.949 39.502 452.488 39.1973C452.027 38.8965 451.77 38.4238 451.715 37.7793H452.787C452.838 38.0605 452.939 38.2773 453.092 38.4297C453.33 38.6641 453.705 38.7812 454.217 38.7812C455.025 38.7812 455.555 38.4961 455.805 37.9258C455.953 37.5898 456.021 36.9902 456.01 36.127C455.799 36.4473 455.545 36.6855 455.248 36.8418C454.951 36.998 454.559 37.0762 454.07 37.0762C453.391 37.0762 452.795 36.8359 452.283 36.3555C451.775 35.8711 451.521 35.0723 451.521 33.959C451.521 32.9082 451.777 32.0879 452.289 31.498C452.805 30.9082 453.426 30.6133 454.152 30.6133ZM456.051 33.8359C456.051 33.0586 455.891 32.4824 455.57 32.1074C455.25 31.7324 454.842 31.5449 454.346 31.5449C453.604 31.5449 453.096 31.8926 452.822 32.5879C452.678 32.959 452.605 33.4453 452.605 34.0469C452.605 34.7539 452.748 35.293 453.033 35.6641C453.322 36.0312 453.709 36.2148 454.193 36.2148C454.951 36.2148 455.484 35.873 455.793 35.1895C455.965 34.8027 456.051 34.3516 456.051 33.8359ZM458.617 30.7539H459.689V37H458.617V30.7539ZM458.617 28.3926H459.689V29.5879H458.617V28.3926ZM463.709 30.543C464.416 30.543 464.99 30.7148 465.432 31.0586C465.877 31.4023 466.145 31.9941 466.234 32.834H465.209C465.146 32.4473 465.004 32.127 464.781 31.873C464.559 31.6152 464.201 31.4863 463.709 31.4863C463.037 31.4863 462.557 31.8145 462.268 32.4707C462.08 32.8965 461.986 33.4219 461.986 34.0469C461.986 34.6758 462.119 35.2051 462.385 35.6348C462.65 36.0645 463.068 36.2793 463.639 36.2793C464.076 36.2793 464.422 36.1465 464.676 35.8809C464.934 35.6113 465.111 35.2441 465.209 34.7793H466.234C466.117 35.6113 465.824 36.2207 465.355 36.6074C464.887 36.9902 464.287 37.1816 463.557 37.1816C462.736 37.1816 462.082 36.8828 461.594 36.2852C461.105 35.6836 460.861 34.9336 460.861 34.0352C460.861 32.9336 461.129 32.0762 461.664 31.4629C462.199 30.8496 462.881 30.543 463.709 30.543ZM471.033 28.3926H472.211V37H471.033V28.3926ZM473.969 30.7246H474.971V31.6152C475.268 31.248 475.582 30.9844 475.914 30.8242C476.246 30.6641 476.615 30.584 477.021 30.584C477.912 30.584 478.514 30.8945 478.826 31.5156C478.998 31.8555 479.084 32.3418 479.084 32.9746V37H478.012V33.0449C478.012 32.6621 477.955 32.3535 477.842 32.1191C477.654 31.7285 477.314 31.5332 476.822 31.5332C476.572 31.5332 476.367 31.5586 476.207 31.6094C475.918 31.6953 475.664 31.8672 475.445 32.125C475.27 32.332 475.154 32.5469 475.1 32.7695C475.049 32.9883 475.023 33.3027 475.023 33.7129V37H473.969V30.7246ZM480.648 30.7539H481.721V37H480.648V30.7539ZM480.648 28.3926H481.721V29.5879H480.648V28.3926ZM483.531 28.9727H484.598V30.7246H485.6V31.5859H484.598V35.6816C484.598 35.9004 484.672 36.0469 484.82 36.1211C484.902 36.1641 485.039 36.1855 485.23 36.1855C485.281 36.1855 485.336 36.1855 485.395 36.1855C485.453 36.1816 485.521 36.1758 485.6 36.168V37C485.479 37.0352 485.352 37.0605 485.219 37.0762C485.09 37.0918 484.949 37.0996 484.797 37.0996C484.305 37.0996 483.971 36.9746 483.795 36.7246C483.619 36.4707 483.531 36.1426 483.531 35.7402V31.5859H482.682V30.7246H483.531V28.9727ZM486.66 30.7539H487.732V37H486.66V30.7539ZM486.66 28.3926H487.732V29.5879H486.66V28.3926ZM490.141 35.3301C490.141 35.6348 490.252 35.875 490.475 36.0508C490.697 36.2266 490.961 36.3145 491.266 36.3145C491.637 36.3145 491.996 36.2285 492.344 36.0566C492.93 35.7715 493.223 35.3047 493.223 34.6562V33.8066C493.094 33.8887 492.928 33.957 492.725 34.0117C492.521 34.0664 492.322 34.1055 492.127 34.1289L491.488 34.2109C491.105 34.2617 490.818 34.3418 490.627 34.4512C490.303 34.6348 490.141 34.9277 490.141 35.3301ZM492.695 33.1973C492.938 33.166 493.1 33.0645 493.182 32.8926C493.229 32.7988 493.252 32.6641 493.252 32.4883C493.252 32.1289 493.123 31.8691 492.865 31.709C492.611 31.5449 492.246 31.4629 491.77 31.4629C491.219 31.4629 490.828 31.6113 490.598 31.9082C490.469 32.0723 490.385 32.3164 490.346 32.6406H489.361C489.381 31.8672 489.631 31.3301 490.111 31.0293C490.596 30.7246 491.156 30.5723 491.793 30.5723C492.531 30.5723 493.131 30.7129 493.592 30.9941C494.049 31.2754 494.277 31.7129 494.277 32.3066V35.9219C494.277 36.0312 494.299 36.1191 494.342 36.1855C494.389 36.252 494.484 36.2852 494.629 36.2852C494.676 36.2852 494.729 36.2832 494.787 36.2793C494.846 36.2715 494.908 36.2617 494.975 36.25V37.0293C494.811 37.0762 494.686 37.1055 494.6 37.1172C494.514 37.1289 494.396 37.1348 494.248 37.1348C493.885 37.1348 493.621 37.0059 493.457 36.748C493.371 36.6113 493.311 36.418 493.275 36.168C493.061 36.4492 492.752 36.6934 492.35 36.9004C491.947 37.1074 491.504 37.2109 491.02 37.2109C490.438 37.2109 489.961 37.0352 489.59 36.6836C489.223 36.3281 489.039 35.8848 489.039 35.3535C489.039 34.7715 489.221 34.3203 489.584 34C489.947 33.6797 490.424 33.4824 491.014 33.4082L492.695 33.1973ZM496.223 28.9727H497.289V30.7246H498.291V31.5859H497.289V35.6816C497.289 35.9004 497.363 36.0469 497.512 36.1211C497.594 36.1641 497.73 36.1855 497.922 36.1855C497.973 36.1855 498.027 36.1855 498.086 36.1855C498.145 36.1816 498.213 36.1758 498.291 36.168V37C498.17 37.0352 498.043 37.0605 497.91 37.0762C497.781 37.0918 497.641 37.0996 497.488 37.0996C496.996 37.0996 496.662 36.9746 496.486 36.7246C496.311 36.4707 496.223 36.1426 496.223 35.7402V31.5859H495.373V30.7246H496.223V28.9727ZM499.352 30.7539H500.424V37H499.352V30.7539ZM499.352 28.3926H500.424V29.5879H499.352V28.3926ZM502.539 30.7246L504.215 35.834L505.967 30.7246H507.121L504.754 37H503.629L501.314 30.7246H502.539ZM510.637 30.584C511.082 30.584 511.514 30.6895 511.932 30.9004C512.35 31.1074 512.668 31.377 512.887 31.709C513.098 32.0254 513.238 32.3945 513.309 32.8164C513.371 33.1055 513.402 33.5664 513.402 34.1992H508.803C508.822 34.8359 508.973 35.3477 509.254 35.7344C509.535 36.1172 509.971 36.3086 510.561 36.3086C511.111 36.3086 511.551 36.127 511.879 35.7637C512.066 35.5527 512.199 35.3086 512.277 35.0312H513.314C513.287 35.2617 513.195 35.5195 513.039 35.8047C512.887 36.0859 512.715 36.3164 512.523 36.4961C512.203 36.8086 511.807 37.0195 511.334 37.1289C511.08 37.1914 510.793 37.2227 510.473 37.2227C509.691 37.2227 509.029 36.9395 508.486 36.373C507.943 35.8027 507.672 35.0059 507.672 33.9824C507.672 32.9746 507.945 32.1562 508.492 31.5273C509.039 30.8984 509.754 30.584 510.637 30.584ZM512.318 33.3613C512.275 32.9043 512.176 32.5391 512.02 32.2656C511.73 31.7578 511.248 31.5039 510.572 31.5039C510.088 31.5039 509.682 31.6797 509.354 32.0312C509.025 32.3789 508.852 32.8223 508.832 33.3613H512.318ZM515.33 35.0312C515.361 35.3828 515.449 35.6523 515.594 35.8398C515.859 36.1797 516.32 36.3496 516.977 36.3496C517.367 36.3496 517.711 36.2656 518.008 36.0977C518.305 35.9258 518.453 35.6621 518.453 35.3066C518.453 35.0371 518.334 34.832 518.096 34.6914C517.943 34.6055 517.643 34.5059 517.193 34.3926L516.355 34.1816C515.82 34.0488 515.426 33.9004 515.172 33.7363C514.719 33.4512 514.492 33.0566 514.492 32.5527C514.492 31.959 514.705 31.4785 515.131 31.1113C515.561 30.7441 516.137 30.5605 516.859 30.5605C517.805 30.5605 518.486 30.8379 518.904 31.3926C519.166 31.7441 519.293 32.123 519.285 32.5293H518.289C518.27 32.291 518.186 32.0742 518.037 31.8789C517.795 31.6016 517.375 31.4629 516.777 31.4629C516.379 31.4629 516.076 31.5391 515.869 31.6914C515.666 31.8438 515.564 32.0449 515.564 32.2949C515.564 32.5684 515.699 32.7871 515.969 32.9512C516.125 33.0488 516.355 33.1348 516.66 33.209L517.357 33.3789C518.115 33.5625 518.623 33.7402 518.881 33.9121C519.291 34.1816 519.496 34.6055 519.496 35.1836C519.496 35.7422 519.283 36.2246 518.857 36.6309C518.436 37.0371 517.791 37.2402 516.924 37.2402C515.99 37.2402 515.328 37.0293 514.938 36.6074C514.551 36.1816 514.344 35.6562 514.316 35.0312H515.33Z" fill="black"/>
<rect x="483.5" y="144" width="122" height="48" rx="8" fill="#E1E6F2"/>
<path d="M496.695 168.381C495.042 168.381 493.84 167.928 493.092 167.023C492.35 166.112 491.979 165.005 491.979 163.703H493.814C493.893 164.608 494.062 165.266 494.322 165.676C494.778 166.411 495.602 166.779 496.793 166.779C497.717 166.779 498.46 166.532 499.02 166.037C499.579 165.542 499.859 164.904 499.859 164.123C499.859 163.16 499.563 162.486 498.971 162.102C498.385 161.717 497.568 161.525 496.52 161.525C496.402 161.525 496.282 161.529 496.158 161.535C496.041 161.535 495.921 161.538 495.797 161.545V159.992C495.979 160.012 496.132 160.025 496.256 160.031C496.38 160.038 496.513 160.041 496.656 160.041C497.314 160.041 497.854 159.937 498.277 159.729C499.02 159.364 499.391 158.713 499.391 157.775C499.391 157.079 499.143 156.542 498.648 156.164C498.154 155.786 497.577 155.598 496.92 155.598C495.748 155.598 494.938 155.988 494.488 156.77C494.241 157.199 494.101 157.811 494.068 158.605H492.33C492.33 157.564 492.538 156.678 492.955 155.949C493.671 154.647 494.931 153.996 496.734 153.996C498.16 153.996 499.264 154.315 500.045 154.953C500.826 155.585 501.217 156.503 501.217 157.707C501.217 158.566 500.986 159.263 500.523 159.797C500.237 160.129 499.866 160.389 499.41 160.578C500.146 160.78 500.719 161.171 501.129 161.75C501.546 162.323 501.754 163.026 501.754 163.859C501.754 165.194 501.314 166.281 500.436 167.121C499.557 167.961 498.31 168.381 496.695 168.381ZM508.043 154.016C509.853 154.016 511.161 154.761 511.969 156.252C512.594 157.404 512.906 158.983 512.906 160.988C512.906 162.889 512.623 164.462 512.057 165.705C511.236 167.489 509.895 168.381 508.033 168.381C506.354 168.381 505.104 167.652 504.283 166.193C503.6 164.976 503.258 163.342 503.258 161.291C503.258 159.702 503.463 158.339 503.873 157.199C504.641 155.077 506.031 154.016 508.043 154.016ZM508.023 166.779C508.935 166.779 509.661 166.376 510.201 165.568C510.742 164.761 511.012 163.257 511.012 161.057C511.012 159.468 510.816 158.163 510.426 157.141C510.035 156.112 509.277 155.598 508.15 155.598C507.115 155.598 506.357 156.086 505.875 157.062C505.4 158.033 505.162 159.465 505.162 161.359C505.162 162.785 505.315 163.931 505.621 164.797C506.09 166.118 506.891 166.779 508.023 166.779ZM527.398 161.203C528.336 161.203 529.137 161.535 529.801 162.199C530.465 162.863 530.797 163.664 530.797 164.602C530.797 165.539 530.465 166.34 529.801 167.004C529.137 167.668 528.336 168 527.398 168C526.454 168 525.65 167.668 524.986 167.004C524.322 166.34 523.99 165.539 523.99 164.602C523.99 163.664 524.322 162.863 524.986 162.199C525.65 161.535 526.454 161.203 527.398 161.203ZM525.982 154.074H527.066L519.244 168.371H518.16L525.982 154.074ZM517.809 159.855C518.368 159.855 518.844 159.66 519.234 159.27C519.632 158.872 519.83 158.397 519.83 157.844C519.83 157.29 519.632 156.818 519.234 156.428C518.844 156.031 518.368 155.832 517.809 155.832C517.255 155.832 516.78 156.027 516.383 156.418C515.992 156.809 515.797 157.284 515.797 157.844C515.797 158.397 515.992 158.872 516.383 159.27C516.78 159.66 517.255 159.855 517.809 159.855ZM517.809 154.436C518.753 154.436 519.557 154.771 520.221 155.441C520.885 156.105 521.217 156.906 521.217 157.844C521.217 158.781 520.885 159.582 520.221 160.246C519.557 160.91 518.753 161.242 517.809 161.242C516.871 161.242 516.07 160.91 515.406 160.246C514.742 159.582 514.41 158.781 514.41 157.844C514.41 156.906 514.742 156.105 515.406 155.441C516.07 154.771 516.871 154.436 517.809 154.436ZM527.398 166.613C527.952 166.613 528.424 166.418 528.814 166.027C529.212 165.63 529.41 165.155 529.41 164.602C529.41 164.048 529.212 163.576 528.814 163.186C528.424 162.788 527.952 162.59 527.398 162.59C526.839 162.59 526.36 162.788 525.963 163.186C525.572 163.576 525.377 164.048 525.377 164.602C525.377 165.155 525.572 165.63 525.963 166.027C526.36 166.418 526.839 166.613 527.398 166.613Z" fill="black"/>
<path d="M493.176 178.223C493.203 178.711 493.318 179.107 493.521 179.412C493.908 179.982 494.59 180.268 495.566 180.268C496.004 180.268 496.402 180.205 496.762 180.08C497.457 179.838 497.805 179.404 497.805 178.779C497.805 178.311 497.658 177.977 497.365 177.777C497.068 177.582 496.604 177.412 495.971 177.268L494.805 177.004C494.043 176.832 493.504 176.643 493.188 176.436C492.641 176.076 492.367 175.539 492.367 174.824C492.367 174.051 492.635 173.416 493.17 172.92C493.705 172.424 494.463 172.176 495.443 172.176C496.346 172.176 497.111 172.395 497.74 172.832C498.373 173.266 498.689 173.961 498.689 174.918H497.594C497.535 174.457 497.41 174.104 497.219 173.857C496.863 173.408 496.26 173.184 495.408 173.184C494.721 173.184 494.227 173.328 493.926 173.617C493.625 173.906 493.475 174.242 493.475 174.625C493.475 175.047 493.65 175.355 494.002 175.551C494.232 175.676 494.754 175.832 495.566 176.02L496.773 176.295C497.355 176.428 497.805 176.609 498.121 176.84C498.668 177.242 498.941 177.826 498.941 178.592C498.941 179.545 498.594 180.227 497.898 180.637C497.207 181.047 496.402 181.252 495.484 181.252C494.414 181.252 493.576 180.979 492.971 180.432C492.365 179.889 492.068 179.152 492.08 178.223H493.176ZM502.891 174.584C503.336 174.584 503.768 174.689 504.186 174.9C504.604 175.107 504.922 175.377 505.141 175.709C505.352 176.025 505.492 176.395 505.562 176.816C505.625 177.105 505.656 177.566 505.656 178.199H501.057C501.076 178.836 501.227 179.348 501.508 179.734C501.789 180.117 502.225 180.309 502.814 180.309C503.365 180.309 503.805 180.127 504.133 179.764C504.32 179.553 504.453 179.309 504.531 179.031H505.568C505.541 179.262 505.449 179.52 505.293 179.805C505.141 180.086 504.969 180.316 504.777 180.496C504.457 180.809 504.061 181.02 503.588 181.129C503.334 181.191 503.047 181.223 502.727 181.223C501.945 181.223 501.283 180.939 500.74 180.373C500.197 179.803 499.926 179.006 499.926 177.982C499.926 176.975 500.199 176.156 500.746 175.527C501.293 174.898 502.008 174.584 502.891 174.584ZM504.572 177.361C504.529 176.904 504.43 176.539 504.273 176.266C503.984 175.758 503.502 175.504 502.826 175.504C502.342 175.504 501.936 175.68 501.607 176.031C501.279 176.379 501.105 176.822 501.086 177.361H504.572ZM509.377 174.543C510.084 174.543 510.658 174.715 511.1 175.059C511.545 175.402 511.812 175.994 511.902 176.834H510.877C510.814 176.447 510.672 176.127 510.449 175.873C510.227 175.615 509.869 175.486 509.377 175.486C508.705 175.486 508.225 175.814 507.936 176.471C507.748 176.896 507.654 177.422 507.654 178.047C507.654 178.676 507.787 179.205 508.053 179.635C508.318 180.064 508.736 180.279 509.307 180.279C509.744 180.279 510.09 180.146 510.344 179.881C510.602 179.611 510.779 179.244 510.877 178.779H511.902C511.785 179.611 511.492 180.221 511.023 180.607C510.555 180.99 509.955 181.182 509.225 181.182C508.404 181.182 507.75 180.883 507.262 180.285C506.773 179.684 506.529 178.934 506.529 178.035C506.529 176.934 506.797 176.076 507.332 175.463C507.867 174.85 508.549 174.543 509.377 174.543ZM514.012 174.725V178.891C514.012 179.211 514.062 179.473 514.164 179.676C514.352 180.051 514.701 180.238 515.213 180.238C515.947 180.238 516.447 179.91 516.713 179.254C516.857 178.902 516.93 178.42 516.93 177.807V174.725H517.984V181H516.988L517 180.074C516.863 180.312 516.693 180.514 516.49 180.678C516.088 181.006 515.6 181.17 515.025 181.17C514.131 181.17 513.521 180.871 513.197 180.273C513.021 179.953 512.934 179.525 512.934 178.99V174.725H514.012ZM519.666 174.725H520.668V175.809C520.75 175.598 520.951 175.342 521.271 175.041C521.592 174.736 521.961 174.584 522.379 174.584C522.398 174.584 522.432 174.586 522.479 174.59C522.525 174.594 522.605 174.602 522.719 174.613V175.727C522.656 175.715 522.598 175.707 522.543 175.703C522.492 175.699 522.436 175.697 522.373 175.697C521.842 175.697 521.434 175.869 521.148 176.213C520.863 176.553 520.721 176.945 520.721 177.391V181H519.666V174.725ZM523.633 174.754H524.705V181H523.633V174.754ZM523.633 172.393H524.705V173.588H523.633V172.393ZM526.516 172.973H527.582V174.725H528.584V175.586H527.582V179.682C527.582 179.9 527.656 180.047 527.805 180.121C527.887 180.164 528.023 180.186 528.215 180.186C528.266 180.186 528.32 180.186 528.379 180.186C528.438 180.182 528.506 180.176 528.584 180.168V181C528.463 181.035 528.336 181.061 528.203 181.076C528.074 181.092 527.934 181.1 527.781 181.1C527.289 181.1 526.955 180.975 526.779 180.725C526.604 180.471 526.516 180.143 526.516 179.74V175.586H525.666V174.725H526.516V172.973ZM533.564 174.725H534.73C534.582 175.127 534.252 176.045 533.74 177.479C533.357 178.557 533.037 179.436 532.779 180.115C532.17 181.717 531.74 182.693 531.49 183.045C531.24 183.396 530.811 183.572 530.201 183.572C530.053 183.572 529.938 183.566 529.855 183.555C529.777 183.543 529.68 183.521 529.562 183.49V182.529C529.746 182.58 529.879 182.611 529.961 182.623C530.043 182.635 530.115 182.641 530.178 182.641C530.373 182.641 530.516 182.607 530.605 182.541C530.699 182.479 530.777 182.4 530.84 182.307C530.859 182.275 530.93 182.115 531.051 181.826C531.172 181.537 531.26 181.322 531.314 181.182L528.994 174.725H530.189L531.871 179.834L533.564 174.725ZM545.178 172.393V173.418H542.277V181H541.094V173.418H538.193V172.393H545.178ZM547.264 180.32C547.963 180.32 548.441 180.057 548.699 179.529C548.961 178.998 549.092 178.408 549.092 177.76C549.092 177.174 548.998 176.697 548.811 176.33C548.514 175.752 548.002 175.463 547.275 175.463C546.631 175.463 546.162 175.709 545.869 176.201C545.576 176.693 545.43 177.287 545.43 177.982C545.43 178.65 545.576 179.207 545.869 179.652C546.162 180.098 546.627 180.32 547.264 180.32ZM547.305 174.543C548.113 174.543 548.797 174.812 549.355 175.352C549.914 175.891 550.193 176.684 550.193 177.73C550.193 178.742 549.947 179.578 549.455 180.238C548.963 180.898 548.199 181.229 547.164 181.229C546.301 181.229 545.615 180.938 545.107 180.355C544.6 179.77 544.346 178.984 544.346 178C544.346 176.945 544.613 176.105 545.148 175.48C545.684 174.855 546.402 174.543 547.305 174.543ZM551.43 172.393H552.443V177.391L555.15 174.725H556.498L554.096 177.074L556.633 181H555.285L553.328 177.836L552.443 178.645V181H551.43V172.393ZM560.066 174.584C560.512 174.584 560.943 174.689 561.361 174.9C561.779 175.107 562.098 175.377 562.316 175.709C562.527 176.025 562.668 176.395 562.738 176.816C562.801 177.105 562.832 177.566 562.832 178.199H558.232C558.252 178.836 558.402 179.348 558.684 179.734C558.965 180.117 559.4 180.309 559.99 180.309C560.541 180.309 560.98 180.127 561.309 179.764C561.496 179.553 561.629 179.309 561.707 179.031H562.744C562.717 179.262 562.625 179.52 562.469 179.805C562.316 180.086 562.145 180.316 561.953 180.496C561.633 180.809 561.236 181.02 560.764 181.129C560.51 181.191 560.223 181.223 559.902 181.223C559.121 181.223 558.459 180.939 557.916 180.373C557.373 179.803 557.102 179.006 557.102 177.982C557.102 176.975 557.375 176.156 557.922 175.527C558.469 174.898 559.184 174.584 560.066 174.584ZM561.748 177.361C561.705 176.904 561.605 176.539 561.449 176.266C561.16 175.758 560.678 175.504 560.002 175.504C559.518 175.504 559.111 175.68 558.783 176.031C558.455 176.379 558.281 176.822 558.262 177.361H561.748ZM564.133 174.725H565.135V175.615C565.432 175.248 565.746 174.984 566.078 174.824C566.41 174.664 566.779 174.584 567.186 174.584C568.076 174.584 568.678 174.895 568.99 175.516C569.162 175.855 569.248 176.342 569.248 176.975V181H568.176V177.045C568.176 176.662 568.119 176.354 568.006 176.119C567.818 175.729 567.479 175.533 566.986 175.533C566.736 175.533 566.531 175.559 566.371 175.609C566.082 175.695 565.828 175.867 565.609 176.125C565.434 176.332 565.318 176.547 565.264 176.77C565.213 176.988 565.188 177.303 565.188 177.713V181H564.133V174.725ZM575.055 178.223C575.082 178.711 575.197 179.107 575.4 179.412C575.787 179.982 576.469 180.268 577.445 180.268C577.883 180.268 578.281 180.205 578.641 180.08C579.336 179.838 579.684 179.404 579.684 178.779C579.684 178.311 579.537 177.977 579.244 177.777C578.947 177.582 578.482 177.412 577.85 177.268L576.684 177.004C575.922 176.832 575.383 176.643 575.066 176.436C574.52 176.076 574.246 175.539 574.246 174.824C574.246 174.051 574.514 173.416 575.049 172.92C575.584 172.424 576.342 172.176 577.322 172.176C578.225 172.176 578.99 172.395 579.619 172.832C580.252 173.266 580.568 173.961 580.568 174.918H579.473C579.414 174.457 579.289 174.104 579.098 173.857C578.742 173.408 578.139 173.184 577.287 173.184C576.6 173.184 576.105 173.328 575.805 173.617C575.504 173.906 575.354 174.242 575.354 174.625C575.354 175.047 575.529 175.355 575.881 175.551C576.111 175.676 576.633 175.832 577.445 176.02L578.652 176.295C579.234 176.428 579.684 176.609 580 176.84C580.547 177.242 580.82 177.826 580.82 178.592C580.82 179.545 580.473 180.227 579.777 180.637C579.086 181.047 578.281 181.252 577.363 181.252C576.293 181.252 575.455 180.979 574.85 180.432C574.244 179.889 573.947 179.152 573.959 178.223H575.055ZM582.965 179.33C582.965 179.635 583.076 179.875 583.299 180.051C583.521 180.227 583.785 180.314 584.09 180.314C584.461 180.314 584.82 180.229 585.168 180.057C585.754 179.771 586.047 179.305 586.047 178.656V177.807C585.918 177.889 585.752 177.957 585.549 178.012C585.346 178.066 585.146 178.105 584.951 178.129L584.312 178.211C583.93 178.262 583.643 178.342 583.451 178.451C583.127 178.635 582.965 178.928 582.965 179.33ZM585.52 177.197C585.762 177.166 585.924 177.064 586.006 176.893C586.053 176.799 586.076 176.664 586.076 176.488C586.076 176.129 585.947 175.869 585.689 175.709C585.436 175.545 585.07 175.463 584.594 175.463C584.043 175.463 583.652 175.611 583.422 175.908C583.293 176.072 583.209 176.316 583.17 176.641H582.186C582.205 175.867 582.455 175.33 582.936 175.029C583.42 174.725 583.98 174.572 584.617 174.572C585.355 174.572 585.955 174.713 586.416 174.994C586.873 175.275 587.102 175.713 587.102 176.307V179.922C587.102 180.031 587.123 180.119 587.166 180.186C587.213 180.252 587.309 180.285 587.453 180.285C587.5 180.285 587.553 180.283 587.611 180.279C587.67 180.271 587.732 180.262 587.799 180.25V181.029C587.635 181.076 587.51 181.105 587.424 181.117C587.338 181.129 587.221 181.135 587.072 181.135C586.709 181.135 586.445 181.006 586.281 180.748C586.195 180.611 586.135 180.418 586.1 180.168C585.885 180.449 585.576 180.693 585.174 180.9C584.771 181.107 584.328 181.211 583.844 181.211C583.262 181.211 582.785 181.035 582.414 180.684C582.047 180.328 581.863 179.885 581.863 179.354C581.863 178.771 582.045 178.32 582.408 178C582.771 177.68 583.248 177.482 583.838 177.408L585.52 177.197ZM588.865 172.393H589.92V181H588.865V172.393ZM594.121 174.584C594.566 174.584 594.998 174.689 595.416 174.9C595.834 175.107 596.152 175.377 596.371 175.709C596.582 176.025 596.723 176.395 596.793 176.816C596.855 177.105 596.887 177.566 596.887 178.199H592.287C592.307 178.836 592.457 179.348 592.738 179.734C593.02 180.117 593.455 180.309 594.045 180.309C594.596 180.309 595.035 180.127 595.363 179.764C595.551 179.553 595.684 179.309 595.762 179.031H596.799C596.771 179.262 596.68 179.52 596.523 179.805C596.371 180.086 596.199 180.316 596.008 180.496C595.688 180.809 595.291 181.02 594.818 181.129C594.564 181.191 594.277 181.223 593.957 181.223C593.176 181.223 592.514 180.939 591.971 180.373C591.428 179.803 591.156 179.006 591.156 177.982C591.156 176.975 591.43 176.156 591.977 175.527C592.523 174.898 593.238 174.584 594.121 174.584ZM595.803 177.361C595.76 176.904 595.66 176.539 595.504 176.266C595.215 175.758 594.732 175.504 594.057 175.504C593.572 175.504 593.166 175.68 592.838 176.031C592.51 176.379 592.336 176.822 592.316 177.361H595.803Z" fill="black"/>
<defs>
<clipPath id="clip0_2206_1301">
<rect width="445" height="445" fill="white" transform="translate(119 37)"/>
</clipPath>
</defs>
</svg>
