<svg width="60" height="60" viewBox="0 0 60 60" fill="none" xmlns="http://www.w3.org/2000/svg">
<mask id="mask0_2074_573" style="mask-type:alpha" maskUnits="userSpaceOnUse" x="0" y="0" width="60" height="60">
<rect width="60" height="60" fill="#D9D9D9"/>
</mask>
<g mask="url(#mask0_2074_573)">
<path d="M23.2405 39.7594L29.9998 35.6587L36.7592 39.7594L34.9661 32.0719L40.9611 26.9037L33.0717 26.2406L29.9998 18.9906L26.928 26.2406L19.0386 26.9037L25.0336 32.0719L23.2405 39.7594ZM29.9998 56.5194L22.1536 48.75H11.2498V37.8462L3.48047 30L11.2498 22.1537V11.25H22.1536L29.9998 3.48062L37.8461 11.25H48.7498V22.1537L56.5192 30L48.7498 37.8462V48.75H37.8461L29.9998 56.5194ZM29.9998 51.25L36.2498 45H44.9998V36.25L51.2498 30L44.9998 23.75V15H36.2498L29.9998 8.75L23.7498 15H14.9998V23.75L8.74984 30L14.9998 36.25V45H23.7498L29.9998 51.25Z" fill="white"/>
</g>
</svg>
