<svg width="48" height="48" viewBox="0 0 48 48" fill="none" xmlns="http://www.w3.org/2000/svg">
<mask id="mask0_2052_676" style="mask-type:alpha" maskUnits="userSpaceOnUse" x="0" y="0" width="48" height="48">
<rect width="48" height="48" fill="#D9D9D9"/>
</mask>
<g mask="url(#mask0_2052_676)">
<path d="M8.6155 41C7.60517 41 6.75 40.65 6.05 39.95C5.35 39.25 5 38.3948 5 37.3845V16.6155C5 15.6052 5.35 14.75 6.05 14.05C6.75 13.35 7.60517 13 8.6155 13H17V9.6155C17 8.60517 17.35 7.75 18.05 7.05C18.75 6.35 19.6052 6 20.6155 6H27.3845C28.3948 6 29.25 6.35 29.95 7.05C30.65 7.75 31 8.60517 31 9.6155V13H39.3845C40.3948 13 41.25 13.35 41.95 14.05C42.65 14.75 43 15.6052 43 16.6155V37.3845C43 38.3948 42.65 39.25 41.95 39.95C41.25 40.65 40.3948 41 39.3845 41H8.6155ZM20 13H28V9.6155C28 9.4615 27.9358 9.3205 27.8075 9.1925C27.6795 9.06417 27.5385 9 27.3845 9H20.6155C20.4615 9 20.3205 9.06417 20.1925 9.1925C20.0642 9.3205 20 9.4615 20 9.6155V13ZM40 29.5H29V33H19V29.5H8V37.3845C8 37.5385 8.06417 37.6795 8.1925 37.8075C8.3205 37.9358 8.4615 38 8.6155 38H39.3845C39.5385 38 39.6795 37.9358 39.8075 37.8075C39.9358 37.6795 40 37.5385 40 37.3845V29.5ZM22 30H26V26H22V30ZM8 26.5H19V23H29V26.5H40V16.6155C40 16.4615 39.9358 16.3205 39.8075 16.1925C39.6795 16.0642 39.5385 16 39.3845 16H8.6155C8.4615 16 8.3205 16.0642 8.1925 16.1925C8.06417 16.3205 8 16.4615 8 16.6155V26.5Z" fill="#3847FE"/>
</g>
</svg>
