<svg width="48" height="48" viewBox="0 0 48 48" fill="none" xmlns="http://www.w3.org/2000/svg">
<mask id="mask0_2052_682" style="mask-type:alpha" maskUnits="userSpaceOnUse" x="0" y="0" width="48" height="48">
<rect width="48" height="48" fill="#D9D9D9"/>
</mask>
<g mask="url(#mask0_2052_682)">
<path d="M24 41C19.1463 41 15.0995 40.3147 11.8595 38.944C8.61983 37.5737 7 35.8615 7 33.8075V14C7 12.0693 8.659 10.42 11.977 9.052C15.295 7.684 19.3027 7 24 7C28.6973 7 32.705 7.684 36.023 9.052C39.341 10.42 41 12.0693 41 14V33.8075C41 35.8615 39.3802 37.5737 36.1405 38.944C32.9005 40.3147 28.8537 41 24 41ZM24 17.9155C26.9153 17.9155 29.8507 17.5033 32.806 16.679C35.761 15.8547 37.4732 14.9655 37.9425 14.0115C37.4858 13.0322 35.7915 12.1187 32.8595 11.271C29.9275 10.4237 26.9743 10 24 10C21.0307 10 18.0877 10.4122 15.171 11.2365C12.2543 12.0608 10.537 12.9602 10.019 13.9345C10.5243 14.9345 12.2288 15.848 15.1325 16.675C18.0365 17.502 20.9923 17.9155 24 17.9155ZM24 27.923C25.3873 27.923 26.7373 27.8563 28.05 27.723C29.3627 27.5897 30.6172 27.3948 31.8135 27.1385C33.0095 26.8822 34.1293 26.5642 35.173 26.1845C36.2167 25.8052 37.159 25.3757 38 24.896V17.8C37.159 18.2793 36.2167 18.7088 35.173 19.0885C34.1293 19.4678 33.0095 19.7857 31.8135 20.042C30.6172 20.2987 29.3627 20.4937 28.05 20.627C26.7373 20.7603 25.3873 20.827 24 20.827C22.5873 20.827 21.211 20.757 19.871 20.617C18.5313 20.4773 17.2667 20.2793 16.077 20.023C14.8873 19.7667 13.779 19.452 12.752 19.079C11.725 18.7057 10.8077 18.2793 10 17.8V24.896C10.8077 25.3757 11.725 25.802 12.752 26.175C13.779 26.548 14.8873 26.8627 16.077 27.119C17.2667 27.3757 18.5313 27.5738 19.871 27.7135C21.211 27.8532 22.5873 27.923 24 27.923ZM24 38C25.623 38 27.2167 37.893 28.781 37.679C30.345 37.4647 31.768 37.1723 33.05 36.802C34.332 36.4313 35.4133 36.0012 36.294 35.5115C37.175 35.0218 37.7437 34.5077 38 33.969V27.896C37.159 28.3757 36.2167 28.8052 35.173 29.1845C34.1293 29.5642 33.0095 29.8822 31.8135 30.1385C30.6172 30.3948 29.3627 30.5897 28.05 30.723C26.7373 30.8563 25.3873 30.923 24 30.923C22.5873 30.923 21.211 30.8532 19.871 30.7135C18.5313 30.5738 17.2667 30.3757 16.077 30.119C14.8873 29.8627 13.779 29.548 12.752 29.175C11.725 28.802 10.8077 28.3757 10 27.896V34C10.2563 34.5513 10.8198 35.0635 11.6905 35.5365C12.5608 36.0095 13.637 36.4313 14.919 36.802C16.2013 37.1723 17.6297 37.4647 19.204 37.679C20.7783 37.893 22.377 38 24 38Z" fill="#3847FE"/>
</g>
</svg>
