<svg width="48" height="48" viewBox="0 0 48 48" fill="none" xmlns="http://www.w3.org/2000/svg">
<mask id="mask0_2022_740" style="mask-type:alpha" maskUnits="userSpaceOnUse" x="0" y="0" width="48" height="48">
<rect width="48" height="48" fill="#D9D9D9"/>
</mask>
<g mask="url(#mask0_2022_740)">
<path d="M18.3075 43.577V42.1925C18.3075 41.1258 18.73 40.2565 19.575 39.5845C20.42 38.9128 21.395 38.5257 22.5 38.423V23.5075C21.677 23.3052 20.952 22.9347 20.325 22.396C19.698 21.8577 19.2077 21.2103 18.854 20.454L14.3615 21.6075C13.3408 21.8485 12.3627 21.7678 11.427 21.3655C10.491 20.9628 9.841 20.2975 9.477 19.3695L18.3695 17.131C18.5975 15.7513 19.2147 14.6115 20.221 13.7115C21.2277 12.8115 22.431 12.3435 23.831 12.3075L25.1845 7.38449C25.4795 6.35883 26.0315 5.52683 26.8405 4.88849C27.6495 4.25016 28.5668 4.01299 29.5925 4.17699L27.054 13.2155C27.9 13.7232 28.5512 14.4007 29.0075 15.248C29.4642 16.0953 29.6925 17.0127 29.6925 18C29.6925 18.446 29.6392 18.8838 29.5325 19.3135C29.4262 19.7428 29.3 20.164 29.154 20.577L32.354 23.9155C33.0847 24.6668 33.5378 25.5488 33.7135 26.5615C33.8892 27.5745 33.6667 28.4617 33.046 29.223L26.777 22.954C26.5873 23.105 26.386 23.2183 26.173 23.294C25.9603 23.3697 25.736 23.4408 25.5 23.5075V38.423C26.605 38.5257 27.58 38.9128 28.425 39.5845C29.27 40.2565 29.6925 41.1258 29.6925 42.1925V43.577H18.3075ZM24 21.3075C24.923 21.3075 25.705 20.987 26.346 20.346C26.987 19.705 27.3075 18.923 27.3075 18C27.3075 17.077 26.987 16.295 26.346 15.654C25.705 15.013 24.923 14.6925 24 14.6925C23.077 14.6925 22.295 15.013 21.654 15.654C21.013 16.295 20.6925 17.077 20.6925 18C20.6925 18.923 21.013 19.705 21.654 20.346C22.295 20.987 23.077 21.3075 24 21.3075Z" fill="#3847FE"/>
</g>
</svg>
