<svg width="48" height="48" viewBox="0 0 48 48" fill="none" xmlns="http://www.w3.org/2000/svg">
<mask id="mask0_2022_732" style="mask-type:alpha" maskUnits="userSpaceOnUse" x="0" y="0" width="48" height="48">
<rect width="48" height="48" fill="#D9D9D9"/>
</mask>
<g mask="url(#mask0_2022_732)">
<path d="M24 43.423L6.5 33.7115V14.2885L24 4.57703L41.5 14.2885V33.7115L24 43.423ZM18.296 19.1155C19.0243 18.2899 19.882 17.6475 20.869 17.1885C21.8563 16.7295 22.9 16.5 24 16.5C25.1 16.5 26.1437 16.7295 27.131 17.1885C28.118 17.6475 28.9757 18.2899 29.704 19.1155L36.8195 15.15L24 8.02303L11.1805 15.15L18.296 19.1155ZM22.5 39.146V31.3655C20.7383 30.9755 19.298 30.096 18.179 28.727C17.0597 27.3577 16.5 25.782 16.5 24C16.5 23.595 16.5263 23.2149 16.579 22.8595C16.6313 22.5045 16.7203 22.141 16.846 21.769L9.5 17.654V31.9385L22.5 39.146ZM24 28.5C25.254 28.5 26.3175 28.0635 27.1905 27.1905C28.0635 26.3175 28.5 25.254 28.5 24C28.5 22.746 28.0635 21.6825 27.1905 20.8095C26.3175 19.9365 25.254 19.5 24 19.5C22.746 19.5 21.6825 19.9365 20.8095 20.8095C19.9365 21.6825 19.5 22.746 19.5 24C19.5 25.254 19.9365 26.3175 20.8095 27.1905C21.6825 28.0635 22.746 28.5 24 28.5ZM25.5 39.146L38.5 31.9385V17.654L31.154 21.769C31.2797 22.141 31.3687 22.5045 31.421 22.8595C31.4737 23.2149 31.5 23.595 31.5 24C31.5 25.782 30.9403 27.3577 29.821 28.727C28.702 30.096 27.2617 30.9755 25.5 31.3655V39.146Z" fill="#3847FE"/>
</g>
</svg>
