<svg width="48" height="48" viewBox="0 0 48 48" fill="none" xmlns="http://www.w3.org/2000/svg">
<mask id="mask0_2022_744" style="mask-type:alpha" maskUnits="userSpaceOnUse" x="0" y="0" width="48" height="48">
<rect width="48" height="48" fill="#D9D9D9"/>
</mask>
<g mask="url(#mask0_2022_744)">
<path d="M8.6155 39C7.62117 39 6.77 38.646 6.062 37.938C5.354 37.23 5 36.3788 5 35.3845V8.6155C5 7.62117 5.354 6.77 6.062 6.062C6.77 5.354 7.62117 5 8.6155 5H18.1925C19.1865 5 20.0375 5.354 20.7455 6.062C21.4535 6.77 21.8075 7.62117 21.8075 8.6155V17.846H18.808V13.827H8V30.173H21.8075V35.3845C21.8075 36.3788 21.4535 37.23 20.7455 37.938C20.0375 38.646 19.1865 39 18.1925 39H8.6155ZM29.6345 43C28.6878 43 27.8775 42.663 27.2035 41.989C26.5295 41.3147 26.1925 40.5042 26.1925 39.5575V30.173H29.192V34.173H40V17.846H26.1925V12.6155C26.1925 11.6212 26.5465 10.77 27.2545 10.062C27.9625 9.354 28.8135 9 29.8075 9H39.3845C40.3788 9 41.23 9.354 41.938 10.062C42.646 10.77 43 11.6212 43 12.6155V39.3845C43 40.3788 42.646 41.23 41.938 41.938C41.23 42.646 40.3788 43 39.3845 43H29.6345ZM8 33.173V35.3845C8 35.5642 8.05767 35.7117 8.173 35.827C8.28833 35.9423 8.43583 36 8.6155 36H18.1925C18.3718 36 18.5192 35.9423 18.6345 35.827C18.7502 35.7117 18.808 35.5642 18.808 35.3845V33.173H8ZM29.192 37.173V39.3845C29.192 39.5642 29.2498 39.7117 29.3655 39.827C29.4808 39.9423 29.6282 40 29.8075 40H39.3845C39.5642 40 39.7117 39.9423 39.827 39.827C39.9423 39.7117 40 39.5642 40 39.3845V37.173H29.192ZM8 10.827H18.808V8.6155C18.808 8.43583 18.7502 8.28833 18.6345 8.173C18.5192 8.05767 18.3718 8 18.1925 8H8.6155C8.43583 8 8.28833 8.05767 8.173 8.173C8.05767 8.28833 8 8.43583 8 8.6155V10.827ZM29.192 14.846H40V12.6155C40 12.4358 39.9423 12.2883 39.827 12.173C39.7117 12.0577 39.5642 12 39.3845 12H29.8075C29.6282 12 29.4808 12.0577 29.3655 12.173C29.2498 12.2883 29.192 12.4358 29.192 12.6155V14.846ZM16.1545 25.7305C15.6645 25.7305 15.2533 25.5648 14.921 25.2335C14.589 24.9018 14.423 24.4908 14.423 24.0005C14.423 23.5105 14.5888 23.0995 14.9205 22.7675C15.2522 22.4355 15.663 22.2695 16.153 22.2695C16.6433 22.2695 17.0545 22.4352 17.3865 22.7665C17.7185 23.0982 17.8845 23.5092 17.8845 23.9995C17.8845 24.4895 17.7187 24.9005 17.387 25.2325C17.0557 25.5645 16.6448 25.7305 16.1545 25.7305ZM24.0005 25.7305C23.5105 25.7305 23.0995 25.5648 22.7675 25.2335C22.4355 24.9018 22.2695 24.4908 22.2695 24.0005C22.2695 23.5105 22.4352 23.0995 22.7665 22.7675C23.0982 22.4355 23.5092 22.2695 23.9995 22.2695C24.4895 22.2695 24.9005 22.4352 25.2325 22.7665C25.5645 23.0982 25.7305 23.5092 25.7305 23.9995C25.7305 24.4895 25.5648 24.9005 25.2335 25.2325C24.9018 25.5645 24.4908 25.7305 24.0005 25.7305ZM31.8275 25.7305C31.3375 25.7305 30.9263 25.5648 30.594 25.2335C30.262 24.9018 30.096 24.4908 30.096 24.0005C30.096 23.5105 30.2618 23.0995 30.5935 22.7675C30.9252 22.4355 31.336 22.2695 31.826 22.2695C32.3163 22.2695 32.7275 22.4352 33.0595 22.7665C33.3915 23.0982 33.5575 23.5092 33.5575 23.9995C33.5575 24.4895 33.3918 24.9005 33.0605 25.2325C32.7288 25.5645 32.3178 25.7305 31.8275 25.7305Z" fill="#3847FE"/>
</g>
</svg>
