<svg width="38" height="32" viewBox="0 0 38 32" fill="none" xmlns="http://www.w3.org/2000/svg">
<path d="M18.7871 0.303223C8.25238 0.303223 0 3.88994 0 8.46875V24.8372C0 27.3938 2.59202 29.7398 7.11183 31.2729C7.17546 31.2941 7.24151 31.3049 7.30697 31.3049C7.43181 31.3049 7.55545 31.2669 7.66029 31.1912C7.81907 31.0774 7.913 30.8946 7.913 30.6997V19.4215C8.78691 19.1442 9.72505 18.8985 10.7171 18.689V21.7147C10.7171 21.9307 10.8323 22.1311 11.0201 22.2388L18.4841 26.5422C18.578 26.5961 18.6823 26.6233 18.7871 26.6233C18.8919 26.6233 18.9962 26.5961 19.0901 26.5422L26.5541 22.2388C26.742 22.1306 26.8571 21.9307 26.8571 21.7147V18.6927C27.8492 18.9021 28.7879 19.1466 29.6612 19.4244V30.6992C29.6612 30.894 29.7551 31.0774 29.9139 31.1906C30.0182 31.2657 30.1417 31.3044 30.2672 31.3044C30.3327 31.3044 30.3987 31.2934 30.4623 31.2722C34.9822 29.7392 37.5742 27.3931 37.5742 24.8372V8.46875C37.5742 3.8894 29.3218 0.303223 18.7871 0.303223ZM18.7871 16.711L12.5352 13.1061L18.7871 9.50192L25.0389 13.1068L18.7871 16.711ZM25.6451 21.3649L19.3931 24.9698V17.76L23.4456 15.4231L25.6444 14.1551L25.6451 21.3649ZM26.8571 17.4428V13.1068C26.8571 12.8908 26.742 12.6904 26.5541 12.5827L19.0901 8.27871C18.9022 8.17096 18.672 8.17096 18.4841 8.27871L11.0201 12.582C10.8323 12.6904 10.7171 12.8901 10.7171 13.1061V17.441C9.73232 17.6402 8.79176 17.8714 7.913 18.1382V14.33C7.913 14.0703 7.74756 13.8398 7.50212 13.7568C3.56348 12.4217 1.21207 10.4449 1.21207 8.46875C1.21207 4.69862 9.26021 1.51374 18.7871 1.51374C28.314 1.51374 36.3622 4.69915 36.3622 8.46875C36.3622 10.4449 34.0107 12.4217 30.0726 13.7575C29.8272 13.841 29.6617 14.0716 29.6617 14.3305V18.1432C28.7812 17.8762 27.8431 17.6419 26.8571 17.4428Z" fill="#3847FE"/>
</svg>
