<svg width="28" height="24" viewBox="0 0 28 24" fill="none" xmlns="http://www.w3.org/2000/svg">
<path d="M14 0.434082C6.14961 0.434082 0 3.11034 0 6.52679V18.7402C0 20.6478 1.93155 22.3983 5.29968 23.5422C5.3471 23.558 5.39632 23.5661 5.4451 23.5661C5.53813 23.5661 5.63026 23.5377 5.70839 23.4812C5.82671 23.3963 5.89671 23.26 5.89671 23.1145V14.6992C6.54794 14.4923 7.24703 14.309 7.98632 14.1527V16.4103C7.98632 16.5716 8.07213 16.7211 8.21213 16.8014L13.7742 20.0124C13.8442 20.0526 13.9219 20.0729 14 20.0729C14.0781 20.0729 14.1558 20.0526 14.2258 20.0124L19.7879 16.8014C19.9279 16.7206 20.0137 16.5716 20.0137 16.4103V14.1554C20.753 14.3117 21.4525 14.4941 22.1033 14.7014V23.1141C22.1033 23.2595 22.1733 23.3963 22.2916 23.4808C22.3693 23.5368 22.4614 23.5657 22.5549 23.5657C22.6037 23.5657 22.6529 23.5576 22.7003 23.5418C26.0685 22.3978 28 20.6474 28 18.7402V6.52679C28 3.10989 21.8504 0.434082 14 0.434082ZM14 12.6769L9.34116 9.98705L14 7.29769L18.6588 9.9875L14 12.6769ZM19.1105 16.1493L14.4516 18.8391V13.4595L17.4715 11.7158L19.11 10.7697V16.1493H19.1105ZM20.0137 13.2229V9.9875C20.0137 9.82628 19.9279 9.67679 19.7879 9.5964L14.2258 6.38498C14.0858 6.3046 13.9142 6.3046 13.7742 6.38498L8.21213 9.59595C8.07213 9.67679 7.98632 9.82582 7.98632 9.98705V13.2215C7.25245 13.3701 6.55155 13.5426 5.89671 13.7418V10.9002C5.89671 10.7065 5.77342 10.5344 5.59052 10.4725C2.65548 9.47628 0.903226 8.00131 0.903226 6.52679C0.903226 3.7137 6.90064 1.33731 14 1.33731C21.0994 1.33731 27.0968 3.71415 27.0968 6.52679C27.0968 8.00131 25.3445 9.47628 22.4099 10.473C22.227 10.5353 22.1037 10.7074 22.1037 10.9007V13.7454C21.4475 13.5462 20.7485 13.3714 20.0137 13.2229Z" fill="white"/>
</svg>
