<svg width="48" height="49" viewBox="0 0 48 49" fill="none" xmlns="http://www.w3.org/2000/svg">
<mask id="mask0_2042_981" style="mask-type:alpha" maskUnits="userSpaceOnUse" x="0" y="0" width="48" height="49">
<rect y="0.672119" width="48" height="48" fill="#D9D9D9"/>
</mask>
<g mask="url(#mask0_2042_981)">
<path d="M24 41.6721C21.6677 41.6721 19.4692 41.226 17.4045 40.3336C15.3398 39.4413 13.5358 38.2233 11.9925 36.6796C10.4488 35.1363 9.23083 33.3323 8.3385 31.2676C7.44617 29.203 7 27.0045 7 24.6721C7 23.2951 7.15383 21.9663 7.4615 20.6856C7.76917 19.405 8.20767 18.198 8.777 17.0646C9.34633 15.9313 10.031 14.8781 10.831 13.9051C11.631 12.9318 12.5232 12.0541 13.5075 11.2721L26.4155 24.1796L24.3075 26.2876L13.5075 15.4876C12.4822 16.6746 11.6412 18.0291 10.9845 19.5511C10.3282 21.0728 10 22.7798 10 24.6721C10 28.5388 11.3667 31.8388 14.1 34.5721C16.8333 37.3055 20.1333 38.6721 24 38.6721C27.8667 38.6721 31.1667 37.3055 33.9 34.5721C36.6333 31.8388 38 28.5388 38 24.6721C38 21.1438 36.8423 18.056 34.527 15.4086C32.2117 12.7613 29.2027 11.2235 25.5 10.7951V14.6721H22.5V7.67212H24C26.3323 7.67212 28.5308 8.11829 30.5955 9.01062C32.6602 9.90295 34.4642 11.121 36.0075 12.6646C37.5512 14.208 38.7692 16.012 39.6615 18.0766C40.5538 20.1413 41 22.3398 41 24.6721C41 27.0045 40.5538 29.203 39.6615 31.2676C38.7692 33.3323 37.5512 35.1363 36.0075 36.6796C34.4642 38.2233 32.6602 39.4413 30.5955 40.3336C28.5308 41.226 26.3323 41.6721 24 41.6721ZM13.9985 26.4411C13.4968 26.4411 13.0768 26.2715 12.7385 25.9321C12.4002 25.5928 12.231 25.1723 12.231 24.6706C12.231 24.169 12.4007 23.749 12.74 23.4106C13.0793 23.0723 13.4998 22.9031 14.0015 22.9031C14.5032 22.9031 14.9232 23.0728 15.2615 23.4121C15.5998 23.7515 15.769 24.172 15.769 24.6736C15.769 25.1753 15.5993 25.5953 15.26 25.9336C14.9207 26.272 14.5002 26.4411 13.9985 26.4411ZM23.9985 36.4411C23.4968 36.4411 23.0768 36.2715 22.7385 35.9321C22.4002 35.5928 22.231 35.1723 22.231 34.6706C22.231 34.169 22.4007 33.749 22.74 33.4106C23.0793 33.0723 23.4998 32.9031 24.0015 32.9031C24.5032 32.9031 24.9232 33.0728 25.2615 33.4121C25.5998 33.7515 25.769 34.172 25.769 34.6736C25.769 35.1753 25.5993 35.5953 25.26 35.9336C24.9207 36.272 24.5002 36.4411 23.9985 36.4411ZM33.9985 26.4411C33.4968 26.4411 33.0768 26.2715 32.7385 25.9321C32.4002 25.5928 32.231 25.1723 32.231 24.6706C32.231 24.169 32.4007 23.749 32.74 23.4106C33.0793 23.0723 33.4998 22.9031 34.0015 22.9031C34.5032 22.9031 34.9232 23.0728 35.2615 23.4121C35.5998 23.7515 35.769 24.172 35.769 24.6736C35.769 25.1753 35.5993 25.5953 35.26 25.9336C34.9207 26.272 34.5002 26.4411 33.9985 26.4411Z" fill="#3847FE"/>
</g>
</svg>
