<svg width="48" height="49" viewBox="0 0 48 49" fill="none" xmlns="http://www.w3.org/2000/svg">
<mask id="mask0_2042_992" style="mask-type:alpha" maskUnits="userSpaceOnUse" x="0" y="0" width="48" height="49">
<rect y="0.672119" width="48" height="48" fill="#D9D9D9"/>
</mask>
<g mask="url(#mask0_2042_992)">
<path d="M34.2115 43.0756L33.804 40.6911C33.2243 40.5245 32.7243 40.3271 32.304 40.0991C31.8833 39.8708 31.4705 39.5656 31.0655 39.1836L28.781 39.9681L27.2425 37.4526L29.081 35.8761C28.9373 35.3221 28.8655 34.7605 28.8655 34.1911C28.8655 33.6221 28.9373 33.0606 29.081 32.5066L27.2425 30.9296L28.781 28.4146L31.0655 29.1991C31.4705 28.8041 31.8833 28.4958 32.304 28.2741C32.7243 28.0521 33.2243 27.8578 33.804 27.6911L34.2115 25.3066H37.2115L37.619 27.6911C38.1987 27.8578 38.6987 28.0521 39.119 28.2741C39.5397 28.4958 39.9525 28.8041 40.3575 29.1991L42.642 28.4146L44.1805 30.9296L42.342 32.5066C42.4857 33.0606 42.5575 33.6221 42.5575 34.1911C42.5575 34.7605 42.4857 35.3221 42.342 35.8761L44.1805 37.4526L42.642 39.9681L40.3575 39.1836C39.9525 39.5656 39.5397 39.8708 39.119 40.0991C38.6987 40.3271 38.1987 40.5245 37.619 40.6911L37.2115 43.0756H34.2115ZM35.7115 38.3451C36.8498 38.3451 37.8268 37.9375 38.6425 37.1221C39.4578 36.3068 39.8655 35.3298 39.8655 34.1911C39.8655 33.0528 39.4578 32.076 38.6425 31.2606C37.8268 30.4453 36.8498 30.0376 35.7115 30.0376C34.5732 30.0376 33.5962 30.4453 32.7805 31.2606C31.9652 32.076 31.5575 33.0528 31.5575 34.1911C31.5575 35.3298 31.9652 36.3068 32.7805 37.1221C33.5962 37.9375 34.5732 38.3451 35.7115 38.3451ZM8 36.6721V12.6721V21.4066V20.6721V36.6721ZM8.6155 39.6721C7.60517 39.6721 6.75 39.3221 6.05 38.6221C5.35 37.9221 5 37.067 5 36.0566V13.2876C5 12.2773 5.35 11.4221 6.05 10.7221C6.75 10.0221 7.60517 9.67212 8.6155 9.67212H19.596L23.596 13.6721H39.3845C40.3948 13.6721 41.25 14.0221 41.95 14.7221C42.65 15.4221 43 16.2773 43 17.2876V22.8566C42.541 22.5386 42.0647 22.263 41.571 22.0296C41.0773 21.7963 40.5537 21.5886 40 21.4066V17.2876C40 17.108 39.9423 16.9605 39.827 16.8451C39.7117 16.7298 39.5642 16.6721 39.3845 16.6721H22.369L18.369 12.6721H8.6155C8.43583 12.6721 8.28833 12.7298 8.173 12.8451C8.05767 12.9605 8 13.108 8 13.2876V36.0566C8 36.2363 8.05767 36.3838 8.173 36.4991C8.28833 36.6145 8.43583 36.6721 8.6155 36.6721H22.4385C22.5258 37.2055 22.6488 37.719 22.8075 38.2126C22.9665 38.706 23.1577 39.1925 23.381 39.6721H8.6155Z" fill="#3847FE"/>
</g>
</svg>
