<svg width="24" height="25" viewBox="0 0 24 25" fill="none" xmlns="http://www.w3.org/2000/svg">
<mask id="mask0_2042_1243" style="mask-type:alpha" maskUnits="userSpaceOnUse" x="0" y="0" width="24" height="25">
<rect y="0.672241" width="24" height="24" fill="#D9D9D9"/>
</mask>
<g mask="url(#mask0_2042_1243)">
<path d="M10 23.6722C10 23.1222 10.1958 22.6514 10.5875 22.2597C10.9792 21.8681 11.45 21.6722 12 21.6722V16.4722C11.8 16.3889 11.6125 16.2931 11.4375 16.1847C11.2625 16.0764 11.1 15.9556 10.95 15.8222L8.75 17.2222C8.51667 17.3556 8.2625 17.4431 7.9875 17.4847C7.7125 17.5264 7.43333 17.5056 7.15 17.4222L2.65 16.1472C2.16667 16.0139 1.77083 15.7431 1.4625 15.3347C1.15417 14.9264 1 14.4639 1 13.9472C1 13.3139 1.22083 12.7764 1.6625 12.3347C2.10417 11.8931 2.64167 11.6722 3.275 11.6722H10.8C10.9667 11.4889 11.15 11.3306 11.35 11.1972C11.55 11.0639 11.7667 10.9556 12 10.8722V7.44724C12 7.16391 12.0542 6.89724 12.1625 6.64724C12.2708 6.39724 12.425 6.18058 12.625 5.99724L16.05 2.79724C16.4333 2.43058 16.8792 2.22224 17.3875 2.17224C17.8958 2.12224 18.3667 2.23058 18.8 2.49724C19.3333 2.83058 19.6792 3.30141 19.8375 3.90974C19.9958 4.51808 19.9083 5.08891 19.575 5.62224L15.6 12.1972C15.7167 12.3972 15.8042 12.6139 15.8625 12.8472C15.9208 13.0806 15.9583 13.3222 15.975 13.5722L18.675 14.2222C18.9417 14.2889 19.1833 14.4056 19.4 14.5722C19.6167 14.7389 19.7917 14.9389 19.925 15.1722L22.2 19.2722C22.45 19.7222 22.5417 20.1972 22.475 20.6972C22.4083 21.1972 22.1917 21.6306 21.825 21.9972C21.375 22.4472 20.8375 22.6722 20.2125 22.6722C19.5875 22.6722 19.05 22.4472 18.6 21.9972L14 17.3972V21.6722C14.55 21.6722 15.0208 21.8681 15.4125 22.2597C15.8042 22.6514 16 23.1222 16 23.6722H10ZM4 5.67224V3.67224H10V5.67224H4ZM14 7.44724V10.8722C14.0167 10.8722 14.0292 10.8764 14.0375 10.8847C14.0458 10.8931 14.0583 10.8972 14.075 10.8972L17.875 4.57224C17.9083 4.50558 17.9167 4.43474 17.9 4.35974C17.8833 4.28474 17.8417 4.23058 17.775 4.19724C17.725 4.16391 17.6625 4.15558 17.5875 4.17224C17.5125 4.18891 17.4583 4.21391 17.425 4.24724L14 7.44724ZM1 9.67224V7.67224H6V9.67224H1ZM13 14.6722C13.2833 14.6722 13.5208 14.5764 13.7125 14.3847C13.9042 14.1931 14 13.9556 14 13.6722C14 13.3889 13.9042 13.1514 13.7125 12.9597C13.5208 12.7681 13.2833 12.6722 13 12.6722C12.7167 12.6722 12.4792 12.7681 12.2875 12.9597C12.0958 13.1514 12 13.3889 12 13.6722C12 13.9556 12.0958 14.1931 12.2875 14.3847C12.4792 14.5764 12.7167 14.6722 13 14.6722ZM7.725 15.5222L10.05 14.1222C10.0333 14.0389 10.025 13.9639 10.025 13.8972V13.6722H3.275C3.19167 13.6722 3.125 13.6972 3.075 13.7472C3.025 13.7972 3 13.8639 3 13.9472C3 14.0139 3.01667 14.0722 3.05 14.1222C3.08333 14.1722 3.13333 14.2056 3.2 14.2222L7.725 15.5222ZM18.2 16.1472L15.35 15.4972C15.3167 15.5306 15.2833 15.5722 15.25 15.6222C15.2167 15.6722 15.1833 15.7139 15.15 15.7472L20.025 20.5972C20.075 20.6472 20.1417 20.6722 20.225 20.6722C20.3083 20.6722 20.375 20.6472 20.425 20.5972C20.475 20.5472 20.5042 20.4931 20.5125 20.4347C20.5208 20.3764 20.5083 20.3139 20.475 20.2472L18.2 16.1472ZM3 21.6722V19.6722H8V21.6722H3Z" fill="#3847FE"/>
</g>
</svg>
