<svg width="48" height="49" viewBox="0 0 48 49" fill="none" xmlns="http://www.w3.org/2000/svg">
<mask id="mask0_2042_988" style="mask-type:alpha" maskUnits="userSpaceOnUse" x="0" y="0" width="48" height="49">
<rect y="0.672119" width="48" height="48" fill="#D9D9D9"/>
</mask>
<g mask="url(#mask0_2042_988)">
<path d="M6.85743 37.0181L4.74993 34.8491L18.9424 20.6181L26.9039 28.5801L33.4344 21.2721C31.5934 19.1181 29.4684 17.4129 27.0594 16.1566C24.6504 14.9003 22.0243 14.2721 19.1809 14.2721C16.8396 14.2721 14.6254 14.6946 12.5384 15.5396C10.4511 16.3843 8.54459 17.5309 6.81893 18.9796L4.71143 16.8106C6.70109 15.0849 8.91843 13.7304 11.3634 12.7471C13.8084 11.7638 16.4143 11.2721 19.1809 11.2721C22.3706 11.2721 25.3423 11.9496 28.0959 13.3046C30.8499 14.6599 33.2988 16.5594 35.4424 19.0031L41.1809 12.5031L43.2884 14.6721L37.2884 21.4336C38.3754 23.1363 39.2734 24.9921 39.9824 27.0011C40.6914 29.0101 41.1653 31.1004 41.4039 33.2721H38.4039C38.1783 31.6694 37.7949 30.0746 37.2539 28.4876C36.7129 26.9003 36.0141 25.3464 35.1574 23.8261L27.0269 32.9181L18.9424 24.8951L6.85743 37.0181Z" fill="#3847FE"/>
</g>
</svg>
