<svg width="24" height="25" viewBox="0 0 24 25" fill="none" xmlns="http://www.w3.org/2000/svg">
<mask id="mask0_2042_1072" style="mask-type:alpha" maskUnits="userSpaceOnUse" x="0" y="0" width="24" height="25">
<rect y="0.672241" width="24" height="24" fill="#D9D9D9"/>
</mask>
<g mask="url(#mask0_2042_1072)">
<path d="M12 22.6722C10.7833 22.5222 9.575 22.1931 8.375 21.6847C7.175 21.1764 6.10417 20.4472 5.1625 19.4972C4.22083 18.5472 3.45833 17.3472 2.875 15.8972C2.29167 14.4472 2 12.7056 2 10.6722V9.67224H3C3.85 9.67224 4.725 9.78057 5.625 9.99724C6.525 10.2139 7.36667 10.5389 8.15 10.9722C8.35 9.53891 8.80417 8.06807 9.5125 6.55974C10.2208 5.05141 11.05 3.75557 12 2.67224C12.95 3.75557 13.7792 5.05141 14.4875 6.55974C15.1958 8.06807 15.65 9.53891 15.85 10.9722C16.6333 10.5389 17.475 10.2139 18.375 9.99724C19.275 9.78057 20.15 9.67224 21 9.67224H22V10.6722C22 12.7056 21.7083 14.4472 21.125 15.8972C20.5417 17.3472 19.7792 18.5472 18.8375 19.4972C17.8958 20.4472 16.8292 21.1764 15.6375 21.6847C14.4458 22.1931 13.2333 22.5222 12 22.6722ZM11.95 20.6222C11.7667 17.8556 10.9458 15.7639 9.4875 14.3472C8.02917 12.9306 6.21667 12.0556 4.05 11.7222C4.23333 14.5722 5.07917 16.6972 6.5875 18.0972C8.09583 19.4972 9.88333 20.3389 11.95 20.6222ZM12 14.2722C12.25 13.9056 12.5542 13.5264 12.9125 13.1347C13.2708 12.7431 13.6167 12.4056 13.95 12.1222C13.9167 11.1722 13.7292 10.1806 13.3875 9.14724C13.0458 8.11391 12.5833 7.10557 12 6.12224C11.4167 7.10557 10.9542 8.11391 10.6125 9.14724C10.2708 10.1806 10.0833 11.1722 10.05 12.1222C10.3833 12.4056 10.7333 12.7431 11.1 13.1347C11.4667 13.5264 11.7667 13.9056 12 14.2722ZM13.95 20.1722C14.5667 19.9722 15.2083 19.6806 15.875 19.2972C16.5417 18.9139 17.1625 18.3931 17.7375 17.7347C18.3125 17.0764 18.8042 16.2556 19.2125 15.2722C19.6208 14.2889 19.8667 13.1056 19.95 11.7222C18.3833 11.9556 17.0083 12.4764 15.825 13.2847C14.6417 14.0931 13.7333 15.1222 13.1 16.3722C13.3 16.9056 13.4708 17.4889 13.6125 18.1222C13.7542 18.7556 13.8667 19.4389 13.95 20.1722Z" fill="#3847FE"/>
</g>
</svg>
