<svg width="60" height="60" viewBox="0 0 60 60" fill="none" xmlns="http://www.w3.org/2000/svg">
<mask id="mask0_2074_563" style="mask-type:alpha" maskUnits="userSpaceOnUse" x="0" y="0" width="60" height="60">
<rect width="60" height="60" fill="#D9D9D9"/>
</mask>
<g mask="url(#mask0_2074_563)">
<path d="M23.5288 23.625L28.6826 15.1587L25.2595 9.4906C24.8078 8.72143 24.1453 8.33685 23.272 8.33685C22.3986 8.33685 21.732 8.72185 21.272 9.49185L15.6395 18.9087L23.5288 23.625ZM45.862 39.3269L40.7357 30.7981L48.7501 26.1825L52.4376 32.3412C52.8476 33.0016 53.0776 33.7373 53.1276 34.5481C53.1772 35.3589 53.0097 36.1073 52.6251 36.7931C52.2405 37.5785 51.6699 38.1971 50.9132 38.6487C50.157 39.1008 49.3372 39.3269 48.4538 39.3269H45.862ZM39.2307 55.4806L30.0001 46.25L39.2307 37.0193V41.6343H50.192L46.8464 48.3269C46.423 49.096 45.8459 49.7114 45.1151 50.1731C44.3847 50.6343 43.5772 50.865 42.6926 50.865H39.2307V55.4806ZM16.8957 50.865C16.1257 50.865 15.4249 50.6664 14.7932 50.2694C14.162 49.8719 13.6957 49.3437 13.3945 48.685C13.0932 48.065 12.9491 47.4183 12.962 46.745C12.9745 46.0721 13.1538 45.4468 13.5001 44.8693L15.462 41.6343H25.3845V50.865H16.8957ZM11.1876 44.2931L7.4376 36.7931C7.07885 36.0914 6.91385 35.3454 6.9426 34.555C6.97135 33.765 7.19531 33.0271 7.61447 32.3412L8.52885 30.7981L4.61572 28.4281L17.2451 25.255L20.4182 37.9468L16.4426 35.5144L11.1876 44.2931ZM42.3414 24.5531L29.707 21.3806L33.6876 19.0162L26.4763 7.01935H34.6107C35.4182 7.01935 36.1778 7.22081 36.8895 7.62372C37.6011 8.02664 38.1684 8.57351 38.5914 9.26435L41.6007 14.2931L45.5145 11.8606L42.3414 24.5531Z" fill="white"/>
</g>
</svg>
